<mxfile host="app.diagrams.net" modified="2022-06-06T16:00:11.768Z" agent="5.0 (Windows NT 10.0; Win64; x64) AppleWebKit/537.36 (KHTML, like Gecko) Chrome/101.0.4951.67 Safari/537.36" etag="05NrQoUCv8AysN-H2HE1" version="19.0.0" type="github" pages="4">
  <diagram name="流动性奖励" id="13e1069c-82ec-6db2-03f1-153e76fe0fe0">
    <mxGraphModel dx="1038" dy="547" grid="1" gridSize="10" guides="1" tooltips="1" connect="1" arrows="1" fold="1" page="1" pageScale="1" pageWidth="1100" pageHeight="850" background="none" math="0" shadow="0">
      <root>
        <mxCell id="0" />
        <mxCell id="1" parent="0" />
        <mxCell id="JyxEKZqlSpqKJdJgQS-E-54" value="" style="html=1;labelBackgroundColor=default;labelBorderColor=none;" parent="1" vertex="1">
          <mxGeometry x="770" y="100" width="215" height="390" as="geometry" />
        </mxCell>
        <mxCell id="JyxEKZqlSpqKJdJgQS-E-36" value="" style="html=1;labelBackgroundColor=default;labelBorderColor=none;" parent="1" vertex="1">
          <mxGeometry x="190" y="100" width="400" height="390" as="geometry" />
        </mxCell>
        <mxCell id="JyxEKZqlSpqKJdJgQS-E-37" value="" style="html=1;labelBackgroundColor=default;labelBorderColor=none;" parent="1" vertex="1">
          <mxGeometry x="590" y="100" width="180" height="390" as="geometry" />
        </mxCell>
        <mxCell id="JyxEKZqlSpqKJdJgQS-E-41" value="" style="edgeStyle=orthogonalEdgeStyle;rounded=0;orthogonalLoop=1;jettySize=auto;html=1;fontSize=11;entryX=0;entryY=0.5;entryDx=0;entryDy=0;" parent="1" source="JyxEKZqlSpqKJdJgQS-E-35" target="JyxEKZqlSpqKJdJgQS-E-40" edge="1">
          <mxGeometry relative="1" as="geometry" />
        </mxCell>
        <mxCell id="JyxEKZqlSpqKJdJgQS-E-42" value="质押：amount" style="edgeLabel;html=1;align=center;verticalAlign=middle;resizable=0;points=[];fontSize=11;" parent="JyxEKZqlSpqKJdJgQS-E-41" vertex="1" connectable="0">
          <mxGeometry x="-0.1829" y="1" relative="1" as="geometry">
            <mxPoint as="offset" />
          </mxGeometry>
        </mxCell>
        <mxCell id="JyxEKZqlSpqKJdJgQS-E-35" value="Actor" style="shape=umlActor;verticalLabelPosition=bottom;verticalAlign=top;html=1;labelBackgroundColor=default;labelBorderColor=none;" parent="1" vertex="1">
          <mxGeometry x="70" y="105" width="30" height="60" as="geometry" />
        </mxCell>
        <mxCell id="JyxEKZqlSpqKJdJgQS-E-38" value="&lt;div style=&quot;color: rgb(0, 0, 0); background-color: rgb(255, 255, 255); font-family: Consolas, &amp;quot;Courier New&amp;quot;, monospace; font-weight: normal; font-size: 11px; line-height: 22px;&quot;&gt;&lt;div style=&quot;font-size: 11px;&quot;&gt;&lt;span style=&quot;color: rgb(0, 0, 0); font-size: 11px;&quot;&gt;StakingPoolForUniswapV2Tokens&lt;/span&gt;&lt;/div&gt;&lt;/div&gt;" style="text;whiteSpace=wrap;html=1;fontSize=11;align=center;" parent="1" vertex="1">
          <mxGeometry x="290" y="60" width="200" height="40" as="geometry" />
        </mxCell>
        <mxCell id="JyxEKZqlSpqKJdJgQS-E-39" value="&lt;div style=&quot;color: rgb(0, 0, 0); background-color: rgb(255, 255, 255); font-family: Consolas, &amp;quot;Courier New&amp;quot;, monospace; font-weight: normal; font-size: 11px; line-height: 22px;&quot;&gt;&lt;div style=&quot;font-size: 11px;&quot;&gt;&lt;span style=&quot;color: rgb(0, 0, 0); font-size: 11px;&quot;&gt;stakedToken&lt;/span&gt;&lt;/div&gt;&lt;/div&gt;" style="text;whiteSpace=wrap;html=1;fontSize=11;align=center;" parent="1" vertex="1">
          <mxGeometry x="620" y="60" width="120" height="40" as="geometry" />
        </mxCell>
        <mxCell id="JyxEKZqlSpqKJdJgQS-E-46" value="" style="edgeStyle=orthogonalEdgeStyle;rounded=0;orthogonalLoop=1;jettySize=auto;html=1;fontSize=11;" parent="1" source="JyxEKZqlSpqKJdJgQS-E-40" target="JyxEKZqlSpqKJdJgQS-E-45" edge="1">
          <mxGeometry relative="1" as="geometry" />
        </mxCell>
        <mxCell id="JyxEKZqlSpqKJdJgQS-E-40" value="deposit" style="rounded=1;whiteSpace=wrap;html=1;absoluteArcSize=1;arcSize=14;strokeWidth=2;labelBackgroundColor=default;labelBorderColor=none;fontSize=11;" parent="1" vertex="1">
          <mxGeometry x="240" y="120" width="100" height="30" as="geometry" />
        </mxCell>
        <mxCell id="JyxEKZqlSpqKJdJgQS-E-48" value="" style="edgeStyle=orthogonalEdgeStyle;rounded=0;orthogonalLoop=1;jettySize=auto;html=1;fontSize=11;" parent="1" source="JyxEKZqlSpqKJdJgQS-E-45" target="JyxEKZqlSpqKJdJgQS-E-47" edge="1">
          <mxGeometry relative="1" as="geometry" />
        </mxCell>
        <mxCell id="JyxEKZqlSpqKJdJgQS-E-45" value="更新质押池" style="rounded=1;whiteSpace=wrap;html=1;absoluteArcSize=1;arcSize=14;strokeWidth=2;labelBackgroundColor=default;labelBorderColor=none;fontSize=11;" parent="1" vertex="1">
          <mxGeometry x="240" y="180" width="100" height="30" as="geometry" />
        </mxCell>
        <mxCell id="JyxEKZqlSpqKJdJgQS-E-50" value="否" style="edgeStyle=orthogonalEdgeStyle;rounded=0;orthogonalLoop=1;jettySize=auto;html=1;fontSize=11;" parent="1" source="JyxEKZqlSpqKJdJgQS-E-47" target="JyxEKZqlSpqKJdJgQS-E-49" edge="1">
          <mxGeometry relative="1" as="geometry" />
        </mxCell>
        <mxCell id="JyxEKZqlSpqKJdJgQS-E-52" value="" style="edgeStyle=orthogonalEdgeStyle;rounded=0;orthogonalLoop=1;jettySize=auto;html=1;fontSize=11;" parent="1" source="JyxEKZqlSpqKJdJgQS-E-47" target="JyxEKZqlSpqKJdJgQS-E-51" edge="1">
          <mxGeometry relative="1" as="geometry" />
        </mxCell>
        <mxCell id="JyxEKZqlSpqKJdJgQS-E-47" value="是否已质押过" style="rhombus;whiteSpace=wrap;html=1;fontSize=11;rounded=1;arcSize=14;strokeWidth=2;labelBackgroundColor=default;labelBorderColor=none;" parent="1" vertex="1">
          <mxGeometry x="250" y="250" width="80" height="55" as="geometry" />
        </mxCell>
        <mxCell id="JyxEKZqlSpqKJdJgQS-E-58" style="edgeStyle=orthogonalEdgeStyle;rounded=0;orthogonalLoop=1;jettySize=auto;html=1;exitX=1;exitY=0.5;exitDx=0;exitDy=0;entryX=0;entryY=0.5;entryDx=0;entryDy=0;fontSize=10;" parent="1" source="JyxEKZqlSpqKJdJgQS-E-49" target="JyxEKZqlSpqKJdJgQS-E-57" edge="1">
          <mxGeometry relative="1" as="geometry" />
        </mxCell>
        <mxCell id="JyxEKZqlSpqKJdJgQS-E-60" value="" style="edgeStyle=orthogonalEdgeStyle;rounded=0;orthogonalLoop=1;jettySize=auto;html=1;fontSize=10;" parent="1" source="JyxEKZqlSpqKJdJgQS-E-49" target="JyxEKZqlSpqKJdJgQS-E-59" edge="1">
          <mxGeometry relative="1" as="geometry" />
        </mxCell>
        <mxCell id="JyxEKZqlSpqKJdJgQS-E-49" value="转移质押代币" style="whiteSpace=wrap;html=1;fontSize=11;rounded=1;arcSize=14;strokeWidth=2;labelBackgroundColor=default;labelBorderColor=none;" parent="1" vertex="1">
          <mxGeometry x="230" y="370" width="120" height="40" as="geometry" />
        </mxCell>
        <mxCell id="JyxEKZqlSpqKJdJgQS-E-56" value="" style="edgeStyle=orthogonalEdgeStyle;rounded=0;orthogonalLoop=1;jettySize=auto;html=1;fontSize=11;" parent="1" source="JyxEKZqlSpqKJdJgQS-E-51" target="JyxEKZqlSpqKJdJgQS-E-55" edge="1">
          <mxGeometry relative="1" as="geometry" />
        </mxCell>
        <mxCell id="JyxEKZqlSpqKJdJgQS-E-51" value="兑现奖励" style="whiteSpace=wrap;html=1;fontSize=11;rounded=1;arcSize=14;strokeWidth=2;labelBackgroundColor=default;labelBorderColor=none;" parent="1" vertex="1">
          <mxGeometry x="360" y="258.75" width="90" height="37.5" as="geometry" />
        </mxCell>
        <mxCell id="JyxEKZqlSpqKJdJgQS-E-53" value="&lt;div style=&quot;color: rgb(0, 0, 0); background-color: rgb(255, 255, 255); font-family: Consolas, &amp;quot;Courier New&amp;quot;, monospace; font-weight: normal; font-size: 11px; line-height: 22px;&quot;&gt;&lt;div style=&quot;font-size: 11px;&quot;&gt;&lt;span style=&quot;color: rgb(0, 0, 0); font-size: 11px;&quot;&gt;looksRareToken&lt;/span&gt;&lt;/div&gt;&lt;/div&gt;" style="text;whiteSpace=wrap;html=1;fontSize=11;align=center;" parent="1" vertex="1">
          <mxGeometry x="802.5" y="60" width="150" height="40" as="geometry" />
        </mxCell>
        <mxCell id="JyxEKZqlSpqKJdJgQS-E-55" value="from:流动性合约&lt;br style=&quot;font-size: 10px;&quot;&gt;to:msg.sender&lt;br&gt;value:&lt;span style=&quot;font-family: Consolas, &amp;quot;Courier New&amp;quot;, monospace; font-size: 10px;&quot;&gt;pendingRewards&lt;/span&gt;" style="whiteSpace=wrap;html=1;fontSize=10;rounded=1;arcSize=14;strokeWidth=2;labelBackgroundColor=default;labelBorderColor=none;align=left;" parent="1" vertex="1">
          <mxGeometry x="802.5" y="250" width="162.5" height="53.75" as="geometry" />
        </mxCell>
        <mxCell id="JyxEKZqlSpqKJdJgQS-E-57" value="from:msg.sender&lt;br style=&quot;font-size: 10px;&quot;&gt;to:流动性合约&lt;br style=&quot;font-size: 10px;&quot;&gt;value:&lt;font face=&quot;Consolas, Courier New, monospace&quot;&gt;amount&lt;/font&gt;" style="whiteSpace=wrap;html=1;fontSize=10;rounded=1;arcSize=14;strokeWidth=2;labelBackgroundColor=default;labelBorderColor=none;align=left;" parent="1" vertex="1">
          <mxGeometry x="630" y="363.13" width="115" height="53.75" as="geometry" />
        </mxCell>
        <mxCell id="JyxEKZqlSpqKJdJgQS-E-59" value="更新质押信息" style="whiteSpace=wrap;html=1;fontSize=11;rounded=1;arcSize=14;strokeWidth=2;labelBackgroundColor=default;labelBorderColor=none;" parent="1" vertex="1">
          <mxGeometry x="230" y="440" width="120" height="30" as="geometry" />
        </mxCell>
        <mxCell id="JyxEKZqlSpqKJdJgQS-E-61" value="" style="html=1;labelBackgroundColor=default;labelBorderColor=none;" parent="1" vertex="1">
          <mxGeometry x="780" y="580" width="215" height="390" as="geometry" />
        </mxCell>
        <mxCell id="JyxEKZqlSpqKJdJgQS-E-62" value="" style="html=1;labelBackgroundColor=default;labelBorderColor=none;" parent="1" vertex="1">
          <mxGeometry x="200" y="580" width="400" height="390" as="geometry" />
        </mxCell>
        <mxCell id="JyxEKZqlSpqKJdJgQS-E-63" value="" style="html=1;labelBackgroundColor=default;labelBorderColor=none;" parent="1" vertex="1">
          <mxGeometry x="600" y="580" width="180" height="390" as="geometry" />
        </mxCell>
        <mxCell id="JyxEKZqlSpqKJdJgQS-E-64" value="" style="edgeStyle=orthogonalEdgeStyle;rounded=0;orthogonalLoop=1;jettySize=auto;html=1;fontSize=11;entryX=0;entryY=0.5;entryDx=0;entryDy=0;" parent="1" source="JyxEKZqlSpqKJdJgQS-E-66" target="JyxEKZqlSpqKJdJgQS-E-70" edge="1">
          <mxGeometry relative="1" as="geometry" />
        </mxCell>
        <mxCell id="JyxEKZqlSpqKJdJgQS-E-65" value="提取：amount" style="edgeLabel;html=1;align=center;verticalAlign=middle;resizable=0;points=[];fontSize=11;" parent="JyxEKZqlSpqKJdJgQS-E-64" vertex="1" connectable="0">
          <mxGeometry x="-0.1829" y="1" relative="1" as="geometry">
            <mxPoint as="offset" />
          </mxGeometry>
        </mxCell>
        <mxCell id="JyxEKZqlSpqKJdJgQS-E-66" value="Actor" style="shape=umlActor;verticalLabelPosition=bottom;verticalAlign=top;html=1;labelBackgroundColor=default;labelBorderColor=none;" parent="1" vertex="1">
          <mxGeometry x="80" y="585" width="30" height="60" as="geometry" />
        </mxCell>
        <mxCell id="JyxEKZqlSpqKJdJgQS-E-67" value="&lt;div style=&quot;color: rgb(0, 0, 0); background-color: rgb(255, 255, 255); font-family: Consolas, &amp;quot;Courier New&amp;quot;, monospace; font-weight: normal; font-size: 11px; line-height: 22px;&quot;&gt;&lt;div style=&quot;font-size: 11px;&quot;&gt;&lt;span style=&quot;color: rgb(0, 0, 0); font-size: 11px;&quot;&gt;StakingPoolForUniswapV2Tokens&lt;/span&gt;&lt;/div&gt;&lt;/div&gt;" style="text;whiteSpace=wrap;html=1;fontSize=11;align=center;" parent="1" vertex="1">
          <mxGeometry x="300" y="540" width="200" height="40" as="geometry" />
        </mxCell>
        <mxCell id="JyxEKZqlSpqKJdJgQS-E-68" value="&lt;div style=&quot;color: rgb(0, 0, 0); background-color: rgb(255, 255, 255); font-family: Consolas, &amp;quot;Courier New&amp;quot;, monospace; font-weight: normal; font-size: 11px; line-height: 22px;&quot;&gt;&lt;div style=&quot;font-size: 11px;&quot;&gt;&lt;span style=&quot;color: rgb(0, 0, 0); font-size: 11px;&quot;&gt;stakedToken&lt;/span&gt;&lt;/div&gt;&lt;/div&gt;" style="text;whiteSpace=wrap;html=1;fontSize=11;align=center;" parent="1" vertex="1">
          <mxGeometry x="630" y="540" width="120" height="40" as="geometry" />
        </mxCell>
        <mxCell id="JyxEKZqlSpqKJdJgQS-E-69" value="" style="edgeStyle=orthogonalEdgeStyle;rounded=0;orthogonalLoop=1;jettySize=auto;html=1;fontSize=11;" parent="1" source="JyxEKZqlSpqKJdJgQS-E-70" target="JyxEKZqlSpqKJdJgQS-E-72" edge="1">
          <mxGeometry relative="1" as="geometry" />
        </mxCell>
        <mxCell id="JyxEKZqlSpqKJdJgQS-E-70" value="withdraw" style="rounded=1;whiteSpace=wrap;html=1;absoluteArcSize=1;arcSize=14;strokeWidth=2;labelBackgroundColor=default;labelBorderColor=none;fontSize=11;" parent="1" vertex="1">
          <mxGeometry x="250" y="600" width="100" height="30" as="geometry" />
        </mxCell>
        <mxCell id="JyxEKZqlSpqKJdJgQS-E-86" value="" style="edgeStyle=orthogonalEdgeStyle;rounded=0;orthogonalLoop=1;jettySize=auto;html=1;fontSize=10;" parent="1" source="JyxEKZqlSpqKJdJgQS-E-72" target="JyxEKZqlSpqKJdJgQS-E-85" edge="1">
          <mxGeometry relative="1" as="geometry" />
        </mxCell>
        <mxCell id="JyxEKZqlSpqKJdJgQS-E-72" value="更新质押池" style="rounded=1;whiteSpace=wrap;html=1;absoluteArcSize=1;arcSize=14;strokeWidth=2;labelBackgroundColor=default;labelBorderColor=none;fontSize=11;" parent="1" vertex="1">
          <mxGeometry x="250" y="660" width="100" height="30" as="geometry" />
        </mxCell>
        <mxCell id="JyxEKZqlSpqKJdJgQS-E-76" style="edgeStyle=orthogonalEdgeStyle;rounded=0;orthogonalLoop=1;jettySize=auto;html=1;exitX=1;exitY=0.5;exitDx=0;exitDy=0;entryX=0;entryY=0.5;entryDx=0;entryDy=0;fontSize=10;" parent="1" source="JyxEKZqlSpqKJdJgQS-E-78" target="JyxEKZqlSpqKJdJgQS-E-83" edge="1">
          <mxGeometry relative="1" as="geometry" />
        </mxCell>
        <mxCell id="JyxEKZqlSpqKJdJgQS-E-89" style="edgeStyle=orthogonalEdgeStyle;rounded=0;orthogonalLoop=1;jettySize=auto;html=1;exitX=0.5;exitY=1;exitDx=0;exitDy=0;entryX=0.5;entryY=0;entryDx=0;entryDy=0;fontSize=10;" parent="1" source="JyxEKZqlSpqKJdJgQS-E-78" target="JyxEKZqlSpqKJdJgQS-E-80" edge="1">
          <mxGeometry relative="1" as="geometry" />
        </mxCell>
        <mxCell id="JyxEKZqlSpqKJdJgQS-E-78" value="提取质押代币" style="whiteSpace=wrap;html=1;fontSize=11;rounded=1;arcSize=14;strokeWidth=2;labelBackgroundColor=default;labelBorderColor=none;" parent="1" vertex="1">
          <mxGeometry x="250" y="843.13" width="100" height="36.87" as="geometry" />
        </mxCell>
        <mxCell id="JyxEKZqlSpqKJdJgQS-E-79" value="" style="edgeStyle=orthogonalEdgeStyle;rounded=0;orthogonalLoop=1;jettySize=auto;html=1;fontSize=11;" parent="1" source="JyxEKZqlSpqKJdJgQS-E-80" target="JyxEKZqlSpqKJdJgQS-E-82" edge="1">
          <mxGeometry relative="1" as="geometry" />
        </mxCell>
        <mxCell id="JyxEKZqlSpqKJdJgQS-E-80" value="提取奖励" style="whiteSpace=wrap;html=1;fontSize=11;rounded=1;arcSize=14;strokeWidth=2;labelBackgroundColor=default;labelBorderColor=none;" parent="1" vertex="1">
          <mxGeometry x="250" y="908.12" width="100" height="37.5" as="geometry" />
        </mxCell>
        <mxCell id="JyxEKZqlSpqKJdJgQS-E-81" value="&lt;div style=&quot;color: rgb(0, 0, 0); background-color: rgb(255, 255, 255); font-family: Consolas, &amp;quot;Courier New&amp;quot;, monospace; font-weight: normal; font-size: 11px; line-height: 22px;&quot;&gt;&lt;div style=&quot;font-size: 11px;&quot;&gt;&lt;span style=&quot;color: rgb(0, 0, 0); font-size: 11px;&quot;&gt;looksRareToken&lt;/span&gt;&lt;/div&gt;&lt;/div&gt;" style="text;whiteSpace=wrap;html=1;fontSize=11;align=center;" parent="1" vertex="1">
          <mxGeometry x="812.5" y="540" width="150" height="40" as="geometry" />
        </mxCell>
        <mxCell id="JyxEKZqlSpqKJdJgQS-E-82" value="from:流动性合约&lt;br style=&quot;font-size: 10px;&quot;&gt;to:msg.sender&lt;br&gt;value:&lt;span style=&quot;font-family: Consolas, &amp;quot;Courier New&amp;quot;, monospace; font-size: 10px;&quot;&gt;pendingRewards&lt;/span&gt;" style="whiteSpace=wrap;html=1;fontSize=10;rounded=1;arcSize=14;strokeWidth=2;labelBackgroundColor=default;labelBorderColor=none;align=left;" parent="1" vertex="1">
          <mxGeometry x="806.25" y="899.99" width="162.5" height="53.75" as="geometry" />
        </mxCell>
        <mxCell id="JyxEKZqlSpqKJdJgQS-E-83" value="from:流动性合约&lt;br style=&quot;font-size: 10px;&quot;&gt;to:msg.sender&lt;br style=&quot;font-size: 10px;&quot;&gt;value:&lt;font face=&quot;Consolas, Courier New, monospace&quot;&gt;amount&lt;/font&gt;" style="whiteSpace=wrap;html=1;fontSize=10;rounded=1;arcSize=14;strokeWidth=2;labelBackgroundColor=default;labelBorderColor=none;align=left;" parent="1" vertex="1">
          <mxGeometry x="635" y="834.6899999999999" width="115" height="53.75" as="geometry" />
        </mxCell>
        <mxCell id="JyxEKZqlSpqKJdJgQS-E-88" style="edgeStyle=orthogonalEdgeStyle;rounded=0;orthogonalLoop=1;jettySize=auto;html=1;exitX=0.5;exitY=1;exitDx=0;exitDy=0;entryX=0.5;entryY=0;entryDx=0;entryDy=0;fontSize=10;" parent="1" source="JyxEKZqlSpqKJdJgQS-E-84" target="JyxEKZqlSpqKJdJgQS-E-78" edge="1">
          <mxGeometry relative="1" as="geometry" />
        </mxCell>
        <mxCell id="JyxEKZqlSpqKJdJgQS-E-84" value="更新质押信息" style="whiteSpace=wrap;html=1;fontSize=11;rounded=1;arcSize=14;strokeWidth=2;labelBackgroundColor=default;labelBorderColor=none;" parent="1" vertex="1">
          <mxGeometry x="250" y="775.62" width="100" height="34.38" as="geometry" />
        </mxCell>
        <mxCell id="JyxEKZqlSpqKJdJgQS-E-87" style="edgeStyle=orthogonalEdgeStyle;rounded=0;orthogonalLoop=1;jettySize=auto;html=1;exitX=0.5;exitY=1;exitDx=0;exitDy=0;fontSize=10;" parent="1" source="JyxEKZqlSpqKJdJgQS-E-85" target="JyxEKZqlSpqKJdJgQS-E-84" edge="1">
          <mxGeometry relative="1" as="geometry" />
        </mxCell>
        <mxCell id="JyxEKZqlSpqKJdJgQS-E-85" value="计算获得的奖励" style="whiteSpace=wrap;html=1;fontSize=11;rounded=1;arcSize=14;strokeWidth=2;labelBackgroundColor=default;labelBorderColor=none;" parent="1" vertex="1">
          <mxGeometry x="250" y="715.62" width="100" height="34.38" as="geometry" />
        </mxCell>
      </root>
    </mxGraphModel>
  </diagram>
  <diagram id="qpMG3Jf_9sZ9QIILGXs_" name="质押奖励">
    <mxGraphModel dx="1483" dy="830" grid="1" gridSize="10" guides="1" tooltips="1" connect="1" arrows="1" fold="1" page="1" pageScale="1" pageWidth="827" pageHeight="1169" math="0" shadow="0">
      <root>
        <mxCell id="0" />
        <mxCell id="1" parent="0" />
        <mxCell id="Fa639jFsxZLrAtxQdbb3-44" value="" style="html=1;labelBackgroundColor=default;labelBorderColor=none;" parent="1" vertex="1">
          <mxGeometry x="1015" y="470" width="185" height="650" as="geometry" />
        </mxCell>
        <mxCell id="Ogl2PSquTxEFGD5WadT8-21" value="" style="rounded=0;whiteSpace=wrap;html=1;labelBackgroundColor=default;labelBorderColor=none;fontSize=11;" parent="1" vertex="1">
          <mxGeometry x="810" y="100" width="280" height="250" as="geometry" />
        </mxCell>
        <mxCell id="Ogl2PSquTxEFGD5WadT8-6" value="" style="rounded=0;whiteSpace=wrap;html=1;labelBackgroundColor=default;labelBorderColor=none;fontSize=11;" parent="1" vertex="1">
          <mxGeometry x="230" y="100" width="270" height="250" as="geometry" />
        </mxCell>
        <mxCell id="Ogl2PSquTxEFGD5WadT8-11" value="" style="rounded=0;whiteSpace=wrap;html=1;labelBackgroundColor=default;labelBorderColor=none;fontSize=11;" parent="1" vertex="1">
          <mxGeometry x="540" y="100" width="220" height="250" as="geometry" />
        </mxCell>
        <mxCell id="Ogl2PSquTxEFGD5WadT8-1" value="&lt;div style=&quot;color: rgb(0, 0, 0); background-color: rgb(255, 255, 255); font-family: Consolas, &amp;quot;Courier New&amp;quot;, monospace; font-weight: normal; line-height: 22px;&quot;&gt;&lt;div style=&quot;&quot;&gt;&lt;span style=&quot;color: rgb(0, 0, 0);&quot;&gt;&lt;font style=&quot;font-size: 16px;&quot;&gt;OperatorControllerForRewardsV2&lt;/font&gt;&lt;/span&gt;&lt;/div&gt;&lt;/div&gt;" style="text;whiteSpace=wrap;html=1;fontSize=17;align=center;" parent="1" vertex="1">
          <mxGeometry x="805" y="55" width="290" height="40" as="geometry" />
        </mxCell>
        <mxCell id="Ogl2PSquTxEFGD5WadT8-17" style="edgeStyle=orthogonalEdgeStyle;rounded=0;orthogonalLoop=1;jettySize=auto;html=1;exitX=0;exitY=0.5;exitDx=0;exitDy=0;entryX=1;entryY=0.5;entryDx=0;entryDy=0;fontSize=13;" parent="1" source="Ogl2PSquTxEFGD5WadT8-4" target="Ogl2PSquTxEFGD5WadT8-16" edge="1">
          <mxGeometry relative="1" as="geometry" />
        </mxCell>
        <mxCell id="Ogl2PSquTxEFGD5WadT8-4" value="&lt;div style=&quot;font-family: Consolas, &amp;quot;Courier New&amp;quot;, monospace; font-size: 11px; line-height: 22px;&quot;&gt;releaseTokensAndUpdateRewards&lt;/div&gt;" style="rounded=1;whiteSpace=wrap;html=1;absoluteArcSize=1;arcSize=14;strokeWidth=2;labelBackgroundColor=default;labelBorderColor=none;fontSize=11;" parent="1" vertex="1">
          <mxGeometry x="845" y="160" width="210" height="40" as="geometry" />
        </mxCell>
        <mxCell id="Ogl2PSquTxEFGD5WadT8-7" value="&lt;div style=&quot;color: rgb(0, 0, 0); background-color: rgb(255, 255, 255); font-family: Consolas, &amp;quot;Courier New&amp;quot;, monospace; font-weight: normal; font-size: 16px; line-height: 22px;&quot;&gt;&lt;div style=&quot;font-size: 16px;&quot;&gt;&lt;span style=&quot;color: rgb(0, 0, 0); font-size: 16px;&quot;&gt;looksRareToken&lt;/span&gt;&lt;/div&gt;&lt;/div&gt;" style="text;whiteSpace=wrap;html=1;fontSize=16;align=center;" parent="1" vertex="1">
          <mxGeometry x="290" y="57.5" width="150" height="35" as="geometry" />
        </mxCell>
        <mxCell id="Ogl2PSquTxEFGD5WadT8-8" value="&lt;div style=&quot;font-family: Consolas, &amp;quot;Courier New&amp;quot;, monospace; line-height: 22px; font-size: 13px;&quot;&gt;teamVesting&lt;/div&gt;" style="rounded=0;whiteSpace=wrap;html=1;labelBackgroundColor=default;labelBorderColor=none;fontSize=13;" parent="1" vertex="1">
          <mxGeometry x="295" y="115" width="185" height="30" as="geometry" />
        </mxCell>
        <mxCell id="Ogl2PSquTxEFGD5WadT8-9" value="&lt;div style=&quot;font-family: Consolas, &amp;quot;Courier New&amp;quot;, monospace; line-height: 22px; font-size: 13px;&quot;&gt;&lt;div style=&quot;font-size: 13px; line-height: 22px;&quot;&gt;treasuryVesting&lt;/div&gt;&lt;/div&gt;" style="rounded=0;whiteSpace=wrap;html=1;labelBackgroundColor=default;labelBorderColor=none;fontSize=13;" parent="1" vertex="1">
          <mxGeometry x="295" y="165" width="185" height="30" as="geometry" />
        </mxCell>
        <mxCell id="Ogl2PSquTxEFGD5WadT8-10" value="&lt;div style=&quot;font-family: Consolas, &amp;quot;Courier New&amp;quot;, monospace; font-size: 13px; line-height: 22px;&quot;&gt;tradingRewardsDistributor&lt;/div&gt;" style="rounded=0;whiteSpace=wrap;html=1;labelBackgroundColor=none;labelBorderColor=none;fontSize=13;fillColor=#ffe6cc;strokeColor=#d79b00;" parent="1" vertex="1">
          <mxGeometry x="295" y="220" width="185" height="30" as="geometry" />
        </mxCell>
        <mxCell id="Ogl2PSquTxEFGD5WadT8-12" value="&lt;div style=&quot;color: rgb(0, 0, 0); background-color: rgb(255, 255, 255); font-family: Consolas, &amp;quot;Courier New&amp;quot;, monospace; font-weight: normal; font-size: 16px; line-height: 22px;&quot;&gt;&lt;div style=&quot;font-size: 16px;&quot;&gt;&lt;div style=&quot;line-height: 22px;&quot;&gt;TokenSplitter&lt;/div&gt;&lt;/div&gt;&lt;/div&gt;" style="text;whiteSpace=wrap;html=1;fontSize=16;align=center;" parent="1" vertex="1">
          <mxGeometry x="572.5" y="60" width="150" height="35" as="geometry" />
        </mxCell>
        <mxCell id="Ogl2PSquTxEFGD5WadT8-18" style="rounded=0;orthogonalLoop=1;jettySize=auto;html=1;exitX=0;exitY=0.5;exitDx=0;exitDy=0;entryX=1;entryY=0.5;entryDx=0;entryDy=0;fontSize=13;" parent="1" source="Ogl2PSquTxEFGD5WadT8-16" target="Ogl2PSquTxEFGD5WadT8-8" edge="1">
          <mxGeometry relative="1" as="geometry" />
        </mxCell>
        <mxCell id="Ogl2PSquTxEFGD5WadT8-19" style="edgeStyle=none;rounded=0;orthogonalLoop=1;jettySize=auto;html=1;exitX=0;exitY=0.5;exitDx=0;exitDy=0;fontSize=13;" parent="1" source="Ogl2PSquTxEFGD5WadT8-16" target="Ogl2PSquTxEFGD5WadT8-9" edge="1">
          <mxGeometry relative="1" as="geometry" />
        </mxCell>
        <mxCell id="Ogl2PSquTxEFGD5WadT8-20" style="edgeStyle=none;rounded=0;orthogonalLoop=1;jettySize=auto;html=1;exitX=0;exitY=0.5;exitDx=0;exitDy=0;entryX=1;entryY=0.5;entryDx=0;entryDy=0;fontSize=13;" parent="1" source="Ogl2PSquTxEFGD5WadT8-16" target="Ogl2PSquTxEFGD5WadT8-10" edge="1">
          <mxGeometry relative="1" as="geometry" />
        </mxCell>
        <mxCell id="Ogl2PSquTxEFGD5WadT8-16" value="&lt;div style=&quot;font-family: Consolas, &amp;quot;Courier New&amp;quot;, monospace; font-size: 13px; line-height: 22px;&quot;&gt;releaseTokens&lt;/div&gt;" style="rounded=1;whiteSpace=wrap;html=1;labelBackgroundColor=default;labelBorderColor=none;fontSize=13;" parent="1" vertex="1">
          <mxGeometry x="577.5" y="160" width="140" height="40" as="geometry" />
        </mxCell>
        <mxCell id="Ogl2PSquTxEFGD5WadT8-22" value="&lt;div style=&quot;font-family: Consolas, &amp;quot;Courier New&amp;quot;, monospace; line-height: 22px;&quot;&gt;&lt;div style=&quot;line-height: 22px;&quot;&gt;&lt;font style=&quot;font-size: 12px;&quot;&gt;canRelease&lt;/font&gt;&lt;/div&gt;&lt;/div&gt;" style="rounded=1;whiteSpace=wrap;html=1;absoluteArcSize=1;arcSize=14;strokeWidth=2;labelBackgroundColor=default;labelBorderColor=none;fontSize=14;" parent="1" vertex="1">
          <mxGeometry x="845" y="220" width="210" height="40" as="geometry" />
        </mxCell>
        <mxCell id="Ogl2PSquTxEFGD5WadT8-24" style="edgeStyle=orthogonalEdgeStyle;rounded=0;orthogonalLoop=1;jettySize=auto;html=1;exitX=0;exitY=0.5;exitDx=0;exitDy=0;entryX=0;entryY=0.5;entryDx=0;entryDy=0;fontSize=12;curved=1;" parent="1" source="Ogl2PSquTxEFGD5WadT8-23" target="Ogl2PSquTxEFGD5WadT8-8" edge="1">
          <mxGeometry relative="1" as="geometry">
            <Array as="points">
              <mxPoint x="240" y="295" />
              <mxPoint x="240" y="130" />
            </Array>
          </mxGeometry>
        </mxCell>
        <mxCell id="Ogl2PSquTxEFGD5WadT8-25" style="edgeStyle=orthogonalEdgeStyle;curved=1;rounded=0;orthogonalLoop=1;jettySize=auto;html=1;exitX=0;exitY=0.5;exitDx=0;exitDy=0;entryX=0;entryY=0.5;entryDx=0;entryDy=0;fontSize=12;" parent="1" source="Ogl2PSquTxEFGD5WadT8-23" target="Ogl2PSquTxEFGD5WadT8-9" edge="1">
          <mxGeometry relative="1" as="geometry">
            <Array as="points">
              <mxPoint x="260" y="295" />
              <mxPoint x="260" y="180" />
            </Array>
          </mxGeometry>
        </mxCell>
        <mxCell id="Ogl2PSquTxEFGD5WadT8-26" style="edgeStyle=orthogonalEdgeStyle;curved=1;rounded=0;orthogonalLoop=1;jettySize=auto;html=1;exitX=0;exitY=0.5;exitDx=0;exitDy=0;entryX=0;entryY=0.5;entryDx=0;entryDy=0;fontSize=12;" parent="1" source="Ogl2PSquTxEFGD5WadT8-23" target="Ogl2PSquTxEFGD5WadT8-10" edge="1">
          <mxGeometry relative="1" as="geometry" />
        </mxCell>
        <mxCell id="Ogl2PSquTxEFGD5WadT8-23" value="&lt;div style=&quot;font-family: Consolas, &amp;quot;Courier New&amp;quot;, monospace; font-size: 13px; line-height: 22px;&quot;&gt;tokenSplitter&lt;/div&gt;" style="rounded=0;whiteSpace=wrap;html=1;labelBackgroundColor=none;labelBorderColor=none;fontSize=13;fillColor=#ffe6cc;strokeColor=#d79b00;" parent="1" vertex="1">
          <mxGeometry x="295" y="280" width="185" height="30" as="geometry" />
        </mxCell>
        <mxCell id="Ogl2PSquTxEFGD5WadT8-27" value="①" style="text;html=1;strokeColor=none;fillColor=none;align=center;verticalAlign=middle;whiteSpace=wrap;rounded=0;labelBackgroundColor=none;labelBorderColor=none;fontSize=12;" parent="1" vertex="1">
          <mxGeometry x="230" y="110" width="60" height="30" as="geometry" />
        </mxCell>
        <mxCell id="Ogl2PSquTxEFGD5WadT8-28" value="②" style="text;html=1;strokeColor=none;fillColor=none;align=center;verticalAlign=middle;whiteSpace=wrap;rounded=0;labelBackgroundColor=none;labelBorderColor=none;fontSize=12;" parent="1" vertex="1">
          <mxGeometry x="250" y="150" width="60" height="30" as="geometry" />
        </mxCell>
        <mxCell id="Ogl2PSquTxEFGD5WadT8-29" value="③" style="text;html=1;strokeColor=none;fillColor=none;align=center;verticalAlign=middle;whiteSpace=wrap;rounded=0;labelBackgroundColor=none;labelBorderColor=none;fontSize=12;" parent="1" vertex="1">
          <mxGeometry x="250" y="200" width="60" height="30" as="geometry" />
        </mxCell>
        <mxCell id="Fa639jFsxZLrAtxQdbb3-1" value="" style="html=1;labelBackgroundColor=default;labelBorderColor=none;" parent="1" vertex="1">
          <mxGeometry x="830" y="470" width="185" height="650" as="geometry" />
        </mxCell>
        <mxCell id="Fa639jFsxZLrAtxQdbb3-2" value="" style="html=1;labelBackgroundColor=default;labelBorderColor=none;strokeColor=default;fillColor=default;" parent="1" vertex="1">
          <mxGeometry x="220" y="470" width="400" height="650" as="geometry" />
        </mxCell>
        <mxCell id="Fa639jFsxZLrAtxQdbb3-3" value="" style="html=1;labelBackgroundColor=default;labelBorderColor=none;" parent="1" vertex="1">
          <mxGeometry x="620" y="470" width="210" height="650" as="geometry" />
        </mxCell>
        <mxCell id="Fa639jFsxZLrAtxQdbb3-4" value="" style="edgeStyle=orthogonalEdgeStyle;rounded=0;orthogonalLoop=1;jettySize=auto;html=1;fontSize=11;entryX=0;entryY=0.5;entryDx=0;entryDy=0;" parent="1" source="Fa639jFsxZLrAtxQdbb3-6" target="Fa639jFsxZLrAtxQdbb3-10" edge="1">
          <mxGeometry relative="1" as="geometry" />
        </mxCell>
        <mxCell id="Fa639jFsxZLrAtxQdbb3-5" value="质押：amount" style="edgeLabel;html=1;align=center;verticalAlign=middle;resizable=0;points=[];fontSize=11;" parent="Fa639jFsxZLrAtxQdbb3-4" vertex="1" connectable="0">
          <mxGeometry x="-0.1829" y="1" relative="1" as="geometry">
            <mxPoint as="offset" />
          </mxGeometry>
        </mxCell>
        <mxCell id="Fa639jFsxZLrAtxQdbb3-6" value="Actor" style="shape=umlActor;verticalLabelPosition=bottom;verticalAlign=top;html=1;labelBackgroundColor=default;labelBorderColor=none;" parent="1" vertex="1">
          <mxGeometry x="100" y="475" width="30" height="60" as="geometry" />
        </mxCell>
        <mxCell id="Fa639jFsxZLrAtxQdbb3-7" value="&lt;div style=&quot;color: rgb(0, 0, 0); font-family: Consolas, &amp;quot;Courier New&amp;quot;, monospace; font-weight: normal; font-size: 13px; line-height: 22px;&quot;&gt;&lt;div style=&quot;font-size: 13px;&quot;&gt;&lt;div style=&quot;font-size: 13px; line-height: 22px;&quot;&gt;FeeSharingSystem&lt;/div&gt;&lt;/div&gt;&lt;/div&gt;" style="text;whiteSpace=wrap;html=1;fontSize=13;align=center;labelBackgroundColor=none;" parent="1" vertex="1">
          <mxGeometry x="320" y="430" width="200" height="40" as="geometry" />
        </mxCell>
        <mxCell id="Fa639jFsxZLrAtxQdbb3-8" value="&lt;div style=&quot;color: rgb(0, 0, 0); font-family: Consolas, &amp;quot;Courier New&amp;quot;, monospace; font-weight: normal; font-size: 13px; line-height: 22px;&quot;&gt;&lt;div style=&quot;font-size: 13px;&quot;&gt;&lt;div style=&quot;font-size: 13px; line-height: 22px;&quot;&gt;tokenDistributor&lt;/div&gt;&lt;/div&gt;&lt;/div&gt;" style="text;whiteSpace=wrap;html=1;fontSize=13;align=center;labelBackgroundColor=none;" parent="1" vertex="1">
          <mxGeometry x="670" y="430" width="120" height="40" as="geometry" />
        </mxCell>
        <mxCell id="Fa639jFsxZLrAtxQdbb3-9" value="" style="edgeStyle=orthogonalEdgeStyle;rounded=0;orthogonalLoop=1;jettySize=auto;html=1;fontSize=11;" parent="1" source="Fa639jFsxZLrAtxQdbb3-10" target="Fa639jFsxZLrAtxQdbb3-12" edge="1">
          <mxGeometry relative="1" as="geometry" />
        </mxCell>
        <mxCell id="Fa639jFsxZLrAtxQdbb3-10" value="deposit" style="rounded=1;whiteSpace=wrap;html=1;absoluteArcSize=1;arcSize=14;strokeWidth=2;labelBackgroundColor=default;labelBorderColor=none;fontSize=11;" parent="1" vertex="1">
          <mxGeometry x="260" y="490" width="120" height="30" as="geometry" />
        </mxCell>
        <mxCell id="Fa639jFsxZLrAtxQdbb3-26" value="" style="edgeStyle=none;rounded=0;orthogonalLoop=1;jettySize=auto;html=1;fontSize=13;" parent="1" source="Fa639jFsxZLrAtxQdbb3-12" target="Fa639jFsxZLrAtxQdbb3-25" edge="1">
          <mxGeometry relative="1" as="geometry" />
        </mxCell>
        <mxCell id="Fa639jFsxZLrAtxQdbb3-30" value="" style="edgeStyle=none;rounded=0;orthogonalLoop=1;jettySize=auto;html=1;fontSize=12;" parent="1" source="Fa639jFsxZLrAtxQdbb3-12" target="Fa639jFsxZLrAtxQdbb3-29" edge="1">
          <mxGeometry relative="1" as="geometry" />
        </mxCell>
        <mxCell id="UvITaEWO34SpUfN1lpHz-1" style="edgeStyle=orthogonalEdgeStyle;rounded=0;orthogonalLoop=1;jettySize=auto;html=1;exitX=1;exitY=0.5;exitDx=0;exitDy=0;entryX=1;entryY=0.5;entryDx=0;entryDy=0;curved=1;dashed=1;" edge="1" parent="1" source="Fa639jFsxZLrAtxQdbb3-12" target="Fa639jFsxZLrAtxQdbb3-18">
          <mxGeometry relative="1" as="geometry">
            <Array as="points">
              <mxPoint x="430" y="570" />
              <mxPoint x="430" y="713" />
            </Array>
          </mxGeometry>
        </mxCell>
        <mxCell id="Fa639jFsxZLrAtxQdbb3-12" value="自动对获得的奖励进行复投" style="rounded=1;whiteSpace=wrap;html=1;absoluteArcSize=1;arcSize=14;strokeWidth=2;labelBackgroundColor=default;labelBorderColor=none;fontSize=11;" parent="1" vertex="1">
          <mxGeometry x="260" y="550" width="120" height="40" as="geometry" />
        </mxCell>
        <mxCell id="Fa639jFsxZLrAtxQdbb3-17" value="" style="edgeStyle=orthogonalEdgeStyle;rounded=0;orthogonalLoop=1;jettySize=auto;html=1;fontSize=10;" parent="1" source="Fa639jFsxZLrAtxQdbb3-18" target="Fa639jFsxZLrAtxQdbb3-24" edge="1">
          <mxGeometry relative="1" as="geometry" />
        </mxCell>
        <mxCell id="Fa639jFsxZLrAtxQdbb3-33" value="" style="edgeStyle=none;rounded=0;orthogonalLoop=1;jettySize=auto;html=1;fontSize=12;" parent="1" source="Fa639jFsxZLrAtxQdbb3-18" target="Fa639jFsxZLrAtxQdbb3-32" edge="1">
          <mxGeometry relative="1" as="geometry" />
        </mxCell>
        <mxCell id="Fa639jFsxZLrAtxQdbb3-18" value="获取当前合约质押的总量" style="whiteSpace=wrap;html=1;fontSize=11;rounded=1;arcSize=14;strokeWidth=2;labelBackgroundColor=default;labelBorderColor=none;" parent="1" vertex="1">
          <mxGeometry x="260" y="693.13" width="120" height="40" as="geometry" />
        </mxCell>
        <mxCell id="Fa639jFsxZLrAtxQdbb3-21" value="&lt;div style=&quot;color: rgb(0, 0, 0); background-color: rgb(255, 255, 255); font-family: Consolas, &amp;quot;Courier New&amp;quot;, monospace; font-weight: normal; line-height: 22px;&quot;&gt;&lt;div style=&quot;&quot;&gt;&lt;span style=&quot;color: rgb(0, 0, 0);&quot;&gt;&lt;font style=&quot;font-size: 13px;&quot;&gt;looksRareToken&lt;/font&gt;&lt;/span&gt;&lt;/div&gt;&lt;/div&gt;" style="text;whiteSpace=wrap;html=1;fontSize=11;align=center;" parent="1" vertex="1">
          <mxGeometry x="847.5" y="430" width="150" height="40" as="geometry" />
        </mxCell>
        <mxCell id="Fa639jFsxZLrAtxQdbb3-35" value="" style="edgeStyle=none;rounded=0;orthogonalLoop=1;jettySize=auto;html=1;fontSize=12;entryX=0;entryY=0.5;entryDx=0;entryDy=0;" parent="1" source="Fa639jFsxZLrAtxQdbb3-24" target="Fa639jFsxZLrAtxQdbb3-56" edge="1">
          <mxGeometry relative="1" as="geometry">
            <mxPoint x="853.75" y="775" as="targetPoint" />
          </mxGeometry>
        </mxCell>
        <mxCell id="Fa639jFsxZLrAtxQdbb3-37" value="" style="edgeStyle=none;rounded=0;orthogonalLoop=1;jettySize=auto;html=1;fontSize=12;" parent="1" source="Fa639jFsxZLrAtxQdbb3-24" target="Fa639jFsxZLrAtxQdbb3-36" edge="1">
          <mxGeometry relative="1" as="geometry" />
        </mxCell>
        <mxCell id="Fa639jFsxZLrAtxQdbb3-24" value="转移用户质押代币" style="whiteSpace=wrap;html=1;fontSize=11;rounded=1;arcSize=14;strokeWidth=2;labelBackgroundColor=default;labelBorderColor=none;" parent="1" vertex="1">
          <mxGeometry x="260" y="760" width="120" height="30" as="geometry" />
        </mxCell>
        <mxCell id="Fa639jFsxZLrAtxQdbb3-25" value="&lt;div style=&quot;font-family: Consolas, &amp;quot;Courier New&amp;quot;, monospace; line-height: 22px;&quot;&gt;&lt;font style=&quot;font-size: 12px;&quot;&gt;harvestAndCompound&lt;/font&gt;&lt;/div&gt;" style="whiteSpace=wrap;html=1;fontSize=13;rounded=1;arcSize=14;strokeWidth=2;labelBackgroundColor=none;labelBorderColor=none;fillColor=#e1d5e7;strokeColor=#9673a6;" parent="1" vertex="1">
          <mxGeometry x="640" y="547.5" width="180" height="45" as="geometry" />
        </mxCell>
        <mxCell id="Fa639jFsxZLrAtxQdbb3-31" value="" style="edgeStyle=none;rounded=0;orthogonalLoop=1;jettySize=auto;html=1;fontSize=12;" parent="1" source="Fa639jFsxZLrAtxQdbb3-29" target="Fa639jFsxZLrAtxQdbb3-18" edge="1">
          <mxGeometry relative="1" as="geometry" />
        </mxCell>
        <mxCell id="Fa639jFsxZLrAtxQdbb3-29" value="更新用户的奖励信息" style="whiteSpace=wrap;html=1;fontSize=11;rounded=1;arcSize=14;strokeWidth=2;labelBackgroundColor=default;labelBorderColor=none;" parent="1" vertex="1">
          <mxGeometry x="260" y="617.5" width="120" height="42.5" as="geometry" />
        </mxCell>
        <mxCell id="Fa639jFsxZLrAtxQdbb3-32" value="&lt;div style=&quot;font-family: Consolas, &amp;quot;Courier New&amp;quot;, monospace; line-height: 22px;&quot;&gt;&lt;font style=&quot;font-size: 12px;&quot;&gt;userInfo(feeSharingSyatem)&lt;/font&gt;&lt;/div&gt;" style="whiteSpace=wrap;html=1;fontSize=11;rounded=1;arcSize=14;strokeWidth=2;labelBackgroundColor=default;labelBorderColor=none;" parent="1" vertex="1">
          <mxGeometry x="640" y="693.13" width="180" height="43.13" as="geometry" />
        </mxCell>
        <mxCell id="Fa639jFsxZLrAtxQdbb3-39" value="" style="edgeStyle=none;rounded=0;orthogonalLoop=1;jettySize=auto;html=1;fontSize=12;" parent="1" source="Fa639jFsxZLrAtxQdbb3-36" target="Fa639jFsxZLrAtxQdbb3-38" edge="1">
          <mxGeometry relative="1" as="geometry" />
        </mxCell>
        <mxCell id="Fa639jFsxZLrAtxQdbb3-36" value="将质押量转换为发行的份额" style="whiteSpace=wrap;html=1;fontSize=11;rounded=1;arcSize=14;strokeWidth=2;labelBackgroundColor=none;labelBorderColor=none;fillColor=#f8cecc;strokeColor=none;" parent="1" vertex="1">
          <mxGeometry x="260" y="820" width="120" height="40" as="geometry" />
        </mxCell>
        <mxCell id="Fa639jFsxZLrAtxQdbb3-41" value="" style="edgeStyle=none;rounded=0;orthogonalLoop=1;jettySize=auto;html=1;fontSize=12;" parent="1" source="Fa639jFsxZLrAtxQdbb3-38" target="Fa639jFsxZLrAtxQdbb3-40" edge="1">
          <mxGeometry relative="1" as="geometry" />
        </mxCell>
        <mxCell id="Fa639jFsxZLrAtxQdbb3-38" value="更新用户的质押信息" style="whiteSpace=wrap;html=1;fontSize=11;rounded=1;arcSize=14;strokeWidth=2;labelBackgroundColor=none;labelBorderColor=none;" parent="1" vertex="1">
          <mxGeometry x="260" y="890" width="120" height="40" as="geometry" />
        </mxCell>
        <mxCell id="Fa639jFsxZLrAtxQdbb3-43" value="是" style="edgeStyle=none;rounded=0;orthogonalLoop=1;jettySize=auto;html=1;fontSize=12;" parent="1" source="Fa639jFsxZLrAtxQdbb3-40" target="Fa639jFsxZLrAtxQdbb3-42" edge="1">
          <mxGeometry relative="1" as="geometry" />
        </mxCell>
        <mxCell id="Fa639jFsxZLrAtxQdbb3-51" value="" style="edgeStyle=none;rounded=0;orthogonalLoop=1;jettySize=auto;html=1;fontSize=12;" parent="1" source="Fa639jFsxZLrAtxQdbb3-40" target="Fa639jFsxZLrAtxQdbb3-50" edge="1">
          <mxGeometry relative="1" as="geometry" />
        </mxCell>
        <mxCell id="Fa639jFsxZLrAtxQdbb3-40" value="是否提取奖励" style="rhombus;whiteSpace=wrap;html=1;fontSize=11;rounded=1;arcSize=14;strokeWidth=2;labelBackgroundColor=none;labelBorderColor=none;" parent="1" vertex="1">
          <mxGeometry x="280" y="960" width="80" height="50" as="geometry" />
        </mxCell>
        <mxCell id="Fa639jFsxZLrAtxQdbb3-49" value="" style="edgeStyle=none;rounded=0;orthogonalLoop=1;jettySize=auto;html=1;fontSize=12;" parent="1" source="Fa639jFsxZLrAtxQdbb3-42" target="Fa639jFsxZLrAtxQdbb3-48" edge="1">
          <mxGeometry relative="1" as="geometry" />
        </mxCell>
        <mxCell id="Fa639jFsxZLrAtxQdbb3-42" value="提取奖励" style="whiteSpace=wrap;html=1;fontSize=11;rounded=1;arcSize=14;strokeWidth=2;labelBackgroundColor=none;labelBorderColor=none;" parent="1" vertex="1">
          <mxGeometry x="420" y="967.5" width="120" height="35" as="geometry" />
        </mxCell>
        <mxCell id="Fa639jFsxZLrAtxQdbb3-45" value="&lt;div style=&quot;color: rgb(0, 0, 0); background-color: rgb(255, 255, 255); font-family: Consolas, &amp;quot;Courier New&amp;quot;, monospace; font-weight: normal; line-height: 22px;&quot;&gt;&lt;div style=&quot;&quot;&gt;&lt;span style=&quot;color: rgb(0, 0, 0);&quot;&gt;&lt;font style=&quot;font-size: 13px;&quot;&gt;rewardToken&lt;/font&gt;&lt;/span&gt;&lt;/div&gt;&lt;/div&gt;" style="text;whiteSpace=wrap;html=1;fontSize=11;align=center;" parent="1" vertex="1">
          <mxGeometry x="1032.5" y="430" width="150" height="40" as="geometry" />
        </mxCell>
        <mxCell id="Fa639jFsxZLrAtxQdbb3-48" value="&lt;font style=&quot;font-size: 12px;&quot;&gt;from：feeSharingSystem&lt;br style=&quot;&quot;&gt;to：msg.sender&lt;br style=&quot;&quot;&gt;&lt;font style=&quot;font-size: 12px;&quot;&gt;value：&lt;span style=&quot;background-color: rgb(255, 255, 255); font-family: Consolas, &amp;quot;Courier New&amp;quot;, monospace;&quot;&gt;pendingRewards&lt;/span&gt;&lt;/font&gt;&lt;/font&gt;" style="whiteSpace=wrap;html=1;fontSize=11;rounded=1;arcSize=14;strokeWidth=2;labelBackgroundColor=none;labelBorderColor=none;align=left;" parent="1" vertex="1">
          <mxGeometry x="1047.5" y="955" width="142.5" height="60" as="geometry" />
        </mxCell>
        <mxCell id="Fa639jFsxZLrAtxQdbb3-53" value="" style="edgeStyle=none;rounded=0;orthogonalLoop=1;jettySize=auto;html=1;fontSize=12;" parent="1" source="Fa639jFsxZLrAtxQdbb3-50" target="Fa639jFsxZLrAtxQdbb3-52" edge="1">
          <mxGeometry relative="1" as="geometry" />
        </mxCell>
        <mxCell id="Fa639jFsxZLrAtxQdbb3-50" value="转存质押代币" style="whiteSpace=wrap;html=1;fontSize=11;rounded=1;arcSize=14;strokeWidth=2;labelBackgroundColor=none;labelBorderColor=none;" parent="1" vertex="1">
          <mxGeometry x="260" y="1040" width="120" height="35" as="geometry" />
        </mxCell>
        <mxCell id="OnZFllTPJryIYEl3ZoQ--2" style="edgeStyle=orthogonalEdgeStyle;curved=1;rounded=0;orthogonalLoop=1;jettySize=auto;html=1;exitX=1;exitY=0.5;exitDx=0;exitDy=0;entryX=0;entryY=0.75;entryDx=0;entryDy=0;fontSize=12;fillColor=#f8cecc;strokeColor=#b85450;dashed=1;strokeWidth=2;" parent="1" source="Fa639jFsxZLrAtxQdbb3-52" target="Fa639jFsxZLrAtxQdbb3-55" edge="1">
          <mxGeometry relative="1" as="geometry" />
        </mxCell>
        <mxCell id="Fa639jFsxZLrAtxQdbb3-52" value="deposit" style="whiteSpace=wrap;html=1;fontSize=11;rounded=1;arcSize=14;strokeWidth=2;labelBackgroundColor=none;labelBorderColor=none;fillColor=#e1d5e7;strokeColor=#9673a6;" parent="1" vertex="1">
          <mxGeometry x="665" y="1037.5" width="120" height="37.5" as="geometry" />
        </mxCell>
        <mxCell id="OnZFllTPJryIYEl3ZoQ--1" style="edgeStyle=orthogonalEdgeStyle;rounded=0;orthogonalLoop=1;jettySize=auto;html=1;exitX=1;exitY=0.5;exitDx=0;exitDy=0;entryX=1;entryY=0.75;entryDx=0;entryDy=0;fontSize=12;curved=1;" parent="1" source="Fa639jFsxZLrAtxQdbb3-55" target="Fa639jFsxZLrAtxQdbb3-58" edge="1">
          <mxGeometry relative="1" as="geometry" />
        </mxCell>
        <mxCell id="Fa639jFsxZLrAtxQdbb3-55" value="&lt;span style=&quot;font-size: 11px; text-align: left;&quot;&gt;feeSharingSystem&lt;/span&gt;" style="rounded=0;whiteSpace=wrap;html=1;labelBackgroundColor=none;labelBorderColor=none;fontSize=12;strokeColor=#d79b00;fillColor=#ffe6cc;" parent="1" vertex="1">
          <mxGeometry x="862.5" y="800" width="120" height="30" as="geometry" />
        </mxCell>
        <mxCell id="Fa639jFsxZLrAtxQdbb3-57" style="edgeStyle=orthogonalEdgeStyle;rounded=0;orthogonalLoop=1;jettySize=auto;html=1;exitX=0;exitY=0.5;exitDx=0;exitDy=0;entryX=0;entryY=0.5;entryDx=0;entryDy=0;fontSize=12;curved=1;" parent="1" source="Fa639jFsxZLrAtxQdbb3-56" target="Fa639jFsxZLrAtxQdbb3-55" edge="1">
          <mxGeometry relative="1" as="geometry" />
        </mxCell>
        <mxCell id="Fa639jFsxZLrAtxQdbb3-56" value="&lt;span style=&quot;font-size: 11px; text-align: left; background-color: rgb(255, 255, 255);&quot;&gt;msg.sender&lt;/span&gt;" style="rounded=0;whiteSpace=wrap;html=1;labelBackgroundColor=none;labelBorderColor=none;fontSize=12;strokeColor=default;fillColor=default;" parent="1" vertex="1">
          <mxGeometry x="862.5" y="760" width="120" height="30" as="geometry" />
        </mxCell>
        <mxCell id="Fa639jFsxZLrAtxQdbb3-58" value="&lt;span style=&quot;font-size: 11px; text-align: left;&quot;&gt;tokenDistributor&lt;/span&gt;" style="rounded=0;whiteSpace=wrap;html=1;labelBackgroundColor=none;labelBorderColor=none;fontSize=12;strokeColor=#A50040;fillColor=#d80073;fontColor=#ffffff;" parent="1" vertex="1">
          <mxGeometry x="862.5" y="1042.5" width="120" height="30" as="geometry" />
        </mxCell>
        <mxCell id="UvITaEWO34SpUfN1lpHz-2" value="自动复投后，合约质押总量在增加" style="text;html=1;strokeColor=none;fillColor=none;align=center;verticalAlign=middle;whiteSpace=wrap;rounded=0;labelBackgroundColor=none;fontColor=#CC0000;" vertex="1" parent="1">
          <mxGeometry x="430" y="640" width="130" height="30" as="geometry" />
        </mxCell>
        <mxCell id="UvITaEWO34SpUfN1lpHz-4" value="" style="html=1;labelBackgroundColor=default;labelBorderColor=none;" vertex="1" parent="1">
          <mxGeometry x="1012.5" y="1209" width="185" height="650" as="geometry" />
        </mxCell>
        <mxCell id="UvITaEWO34SpUfN1lpHz-5" value="" style="html=1;labelBackgroundColor=default;labelBorderColor=none;" vertex="1" parent="1">
          <mxGeometry x="827.5" y="1209" width="185" height="650" as="geometry" />
        </mxCell>
        <mxCell id="UvITaEWO34SpUfN1lpHz-6" value="" style="html=1;labelBackgroundColor=default;labelBorderColor=none;strokeColor=default;fillColor=default;" vertex="1" parent="1">
          <mxGeometry x="217.5" y="1209" width="400" height="650" as="geometry" />
        </mxCell>
        <mxCell id="UvITaEWO34SpUfN1lpHz-7" value="" style="html=1;labelBackgroundColor=default;labelBorderColor=none;" vertex="1" parent="1">
          <mxGeometry x="617.5" y="1209" width="210" height="650" as="geometry" />
        </mxCell>
        <mxCell id="UvITaEWO34SpUfN1lpHz-8" value="" style="edgeStyle=orthogonalEdgeStyle;rounded=0;orthogonalLoop=1;jettySize=auto;html=1;fontSize=11;entryX=0;entryY=0.5;entryDx=0;entryDy=0;" edge="1" parent="1" source="UvITaEWO34SpUfN1lpHz-10" target="UvITaEWO34SpUfN1lpHz-14">
          <mxGeometry relative="1" as="geometry" />
        </mxCell>
        <mxCell id="UvITaEWO34SpUfN1lpHz-9" value="提取：shares" style="edgeLabel;html=1;align=center;verticalAlign=middle;resizable=0;points=[];fontSize=11;" vertex="1" connectable="0" parent="UvITaEWO34SpUfN1lpHz-8">
          <mxGeometry x="-0.1829" y="1" relative="1" as="geometry">
            <mxPoint as="offset" />
          </mxGeometry>
        </mxCell>
        <mxCell id="UvITaEWO34SpUfN1lpHz-10" value="Actor" style="shape=umlActor;verticalLabelPosition=bottom;verticalAlign=top;html=1;labelBackgroundColor=default;labelBorderColor=none;" vertex="1" parent="1">
          <mxGeometry x="97.5" y="1214" width="30" height="60" as="geometry" />
        </mxCell>
        <mxCell id="UvITaEWO34SpUfN1lpHz-11" value="&lt;div style=&quot;color: rgb(0, 0, 0); font-family: Consolas, &amp;quot;Courier New&amp;quot;, monospace; font-weight: normal; font-size: 13px; line-height: 22px;&quot;&gt;&lt;div style=&quot;font-size: 13px;&quot;&gt;&lt;div style=&quot;font-size: 13px; line-height: 22px;&quot;&gt;FeeSharingSystem&lt;/div&gt;&lt;/div&gt;&lt;/div&gt;" style="text;whiteSpace=wrap;html=1;fontSize=13;align=center;labelBackgroundColor=none;" vertex="1" parent="1">
          <mxGeometry x="317.5" y="1169" width="200" height="40" as="geometry" />
        </mxCell>
        <mxCell id="UvITaEWO34SpUfN1lpHz-12" value="&lt;div style=&quot;color: rgb(0, 0, 0); font-family: Consolas, &amp;quot;Courier New&amp;quot;, monospace; font-weight: normal; font-size: 13px; line-height: 22px;&quot;&gt;&lt;div style=&quot;font-size: 13px;&quot;&gt;&lt;div style=&quot;font-size: 13px; line-height: 22px;&quot;&gt;tokenDistributor&lt;/div&gt;&lt;/div&gt;&lt;/div&gt;" style="text;whiteSpace=wrap;html=1;fontSize=13;align=center;labelBackgroundColor=none;" vertex="1" parent="1">
          <mxGeometry x="667.5" y="1169" width="120" height="40" as="geometry" />
        </mxCell>
        <mxCell id="UvITaEWO34SpUfN1lpHz-13" value="" style="edgeStyle=orthogonalEdgeStyle;rounded=0;orthogonalLoop=1;jettySize=auto;html=1;fontSize=11;" edge="1" parent="1" source="UvITaEWO34SpUfN1lpHz-14" target="UvITaEWO34SpUfN1lpHz-18">
          <mxGeometry relative="1" as="geometry" />
        </mxCell>
        <mxCell id="UvITaEWO34SpUfN1lpHz-14" value="withdraw" style="rounded=1;whiteSpace=wrap;html=1;absoluteArcSize=1;arcSize=14;strokeWidth=2;labelBackgroundColor=default;labelBorderColor=none;fontSize=11;" vertex="1" parent="1">
          <mxGeometry x="257.5" y="1229" width="120" height="30" as="geometry" />
        </mxCell>
        <mxCell id="UvITaEWO34SpUfN1lpHz-15" value="" style="edgeStyle=none;rounded=0;orthogonalLoop=1;jettySize=auto;html=1;fontSize=13;" edge="1" parent="1" source="UvITaEWO34SpUfN1lpHz-18" target="UvITaEWO34SpUfN1lpHz-26">
          <mxGeometry relative="1" as="geometry" />
        </mxCell>
        <mxCell id="UvITaEWO34SpUfN1lpHz-16" value="" style="edgeStyle=none;rounded=0;orthogonalLoop=1;jettySize=auto;html=1;fontSize=12;" edge="1" parent="1" source="UvITaEWO34SpUfN1lpHz-18" target="UvITaEWO34SpUfN1lpHz-28">
          <mxGeometry relative="1" as="geometry" />
        </mxCell>
        <mxCell id="UvITaEWO34SpUfN1lpHz-17" style="edgeStyle=orthogonalEdgeStyle;rounded=0;orthogonalLoop=1;jettySize=auto;html=1;exitX=1;exitY=0.5;exitDx=0;exitDy=0;entryX=1;entryY=0.5;entryDx=0;entryDy=0;curved=1;dashed=1;" edge="1" parent="1" source="UvITaEWO34SpUfN1lpHz-18" target="UvITaEWO34SpUfN1lpHz-21">
          <mxGeometry relative="1" as="geometry">
            <Array as="points">
              <mxPoint x="427.5" y="1309" />
              <mxPoint x="427.5" y="1452" />
            </Array>
          </mxGeometry>
        </mxCell>
        <mxCell id="UvITaEWO34SpUfN1lpHz-18" value="自动对获得的奖励进行复投" style="rounded=1;whiteSpace=wrap;html=1;absoluteArcSize=1;arcSize=14;strokeWidth=2;labelBackgroundColor=default;labelBorderColor=none;fontSize=11;" vertex="1" parent="1">
          <mxGeometry x="257.5" y="1289" width="120" height="40" as="geometry" />
        </mxCell>
        <mxCell id="UvITaEWO34SpUfN1lpHz-20" value="" style="edgeStyle=none;rounded=0;orthogonalLoop=1;jettySize=auto;html=1;fontSize=12;" edge="1" parent="1" source="UvITaEWO34SpUfN1lpHz-21" target="UvITaEWO34SpUfN1lpHz-29">
          <mxGeometry relative="1" as="geometry" />
        </mxCell>
        <mxCell id="UvITaEWO34SpUfN1lpHz-51" style="rounded=0;orthogonalLoop=1;jettySize=auto;html=1;exitX=0.5;exitY=1;exitDx=0;exitDy=0;entryX=0.5;entryY=0;entryDx=0;entryDy=0;fontColor=#CC0000;" edge="1" parent="1" source="UvITaEWO34SpUfN1lpHz-21" target="UvITaEWO34SpUfN1lpHz-31">
          <mxGeometry relative="1" as="geometry" />
        </mxCell>
        <mxCell id="UvITaEWO34SpUfN1lpHz-21" value="获取当前合约质押的总量" style="whiteSpace=wrap;html=1;fontSize=11;rounded=1;arcSize=14;strokeWidth=2;labelBackgroundColor=default;labelBorderColor=none;" vertex="1" parent="1">
          <mxGeometry x="257.5" y="1432.13" width="120" height="40" as="geometry" />
        </mxCell>
        <mxCell id="UvITaEWO34SpUfN1lpHz-22" value="&lt;div style=&quot;color: rgb(0, 0, 0); background-color: rgb(255, 255, 255); font-family: Consolas, &amp;quot;Courier New&amp;quot;, monospace; font-weight: normal; line-height: 22px;&quot;&gt;&lt;div style=&quot;&quot;&gt;&lt;span style=&quot;color: rgb(0, 0, 0);&quot;&gt;&lt;font style=&quot;font-size: 13px;&quot;&gt;looksRareToken&lt;/font&gt;&lt;/span&gt;&lt;/div&gt;&lt;/div&gt;" style="text;whiteSpace=wrap;html=1;fontSize=11;align=center;" vertex="1" parent="1">
          <mxGeometry x="845" y="1169" width="150" height="40" as="geometry" />
        </mxCell>
        <mxCell id="UvITaEWO34SpUfN1lpHz-26" value="&lt;div style=&quot;font-family: Consolas, &amp;quot;Courier New&amp;quot;, monospace; line-height: 22px;&quot;&gt;&lt;font style=&quot;font-size: 12px;&quot;&gt;harvestAndCompound&lt;/font&gt;&lt;/div&gt;" style="whiteSpace=wrap;html=1;fontSize=13;rounded=1;arcSize=14;strokeWidth=2;labelBackgroundColor=none;labelBorderColor=none;fillColor=#e1d5e7;strokeColor=#9673a6;" vertex="1" parent="1">
          <mxGeometry x="637.5" y="1286.5" width="180" height="45" as="geometry" />
        </mxCell>
        <mxCell id="UvITaEWO34SpUfN1lpHz-27" value="" style="edgeStyle=none;rounded=0;orthogonalLoop=1;jettySize=auto;html=1;fontSize=12;" edge="1" parent="1" source="UvITaEWO34SpUfN1lpHz-28" target="UvITaEWO34SpUfN1lpHz-21">
          <mxGeometry relative="1" as="geometry" />
        </mxCell>
        <mxCell id="UvITaEWO34SpUfN1lpHz-28" value="更新用户的奖励信息" style="whiteSpace=wrap;html=1;fontSize=11;rounded=1;arcSize=14;strokeWidth=2;labelBackgroundColor=default;labelBorderColor=none;" vertex="1" parent="1">
          <mxGeometry x="257.5" y="1356.5" width="120" height="42.5" as="geometry" />
        </mxCell>
        <mxCell id="UvITaEWO34SpUfN1lpHz-29" value="&lt;div style=&quot;font-family: Consolas, &amp;quot;Courier New&amp;quot;, monospace; line-height: 22px;&quot;&gt;&lt;font style=&quot;font-size: 12px;&quot;&gt;userInfo(feeSharingSyatem)&lt;/font&gt;&lt;/div&gt;" style="whiteSpace=wrap;html=1;fontSize=11;rounded=1;arcSize=14;strokeWidth=2;labelBackgroundColor=default;labelBorderColor=none;" vertex="1" parent="1">
          <mxGeometry x="637.5" y="1432.13" width="180" height="43.13" as="geometry" />
        </mxCell>
        <mxCell id="UvITaEWO34SpUfN1lpHz-30" value="" style="edgeStyle=none;rounded=0;orthogonalLoop=1;jettySize=auto;html=1;fontSize=12;" edge="1" parent="1" source="UvITaEWO34SpUfN1lpHz-31" target="UvITaEWO34SpUfN1lpHz-33">
          <mxGeometry relative="1" as="geometry" />
        </mxCell>
        <mxCell id="UvITaEWO34SpUfN1lpHz-31" value="将提取的份额转换为代币数" style="whiteSpace=wrap;html=1;fontSize=11;rounded=1;arcSize=14;strokeWidth=2;labelBackgroundColor=none;labelBorderColor=none;fillColor=#f8cecc;strokeColor=none;" vertex="1" parent="1">
          <mxGeometry x="257.5" y="1514" width="120" height="40" as="geometry" />
        </mxCell>
        <mxCell id="UvITaEWO34SpUfN1lpHz-52" style="edgeStyle=none;rounded=0;orthogonalLoop=1;jettySize=auto;html=1;exitX=0.5;exitY=1;exitDx=0;exitDy=0;entryX=0.5;entryY=0;entryDx=0;entryDy=0;fontColor=#CC0000;" edge="1" parent="1" source="UvITaEWO34SpUfN1lpHz-33" target="UvITaEWO34SpUfN1lpHz-42">
          <mxGeometry relative="1" as="geometry" />
        </mxCell>
        <mxCell id="UvITaEWO34SpUfN1lpHz-33" value="更新用户的质押信息" style="whiteSpace=wrap;html=1;fontSize=11;rounded=1;arcSize=14;strokeWidth=2;labelBackgroundColor=none;labelBorderColor=none;" vertex="1" parent="1">
          <mxGeometry x="257.5" y="1580" width="120" height="40" as="geometry" />
        </mxCell>
        <mxCell id="UvITaEWO34SpUfN1lpHz-34" value="是" style="edgeStyle=none;rounded=0;orthogonalLoop=1;jettySize=auto;html=1;fontSize=12;" edge="1" parent="1" source="UvITaEWO34SpUfN1lpHz-36" target="UvITaEWO34SpUfN1lpHz-38">
          <mxGeometry relative="1" as="geometry" />
        </mxCell>
        <mxCell id="UvITaEWO34SpUfN1lpHz-36" value="是否提取奖励" style="rhombus;whiteSpace=wrap;html=1;fontSize=11;rounded=1;arcSize=14;strokeWidth=2;labelBackgroundColor=none;labelBorderColor=none;" vertex="1" parent="1">
          <mxGeometry x="277.5" y="1740" width="80" height="50" as="geometry" />
        </mxCell>
        <mxCell id="UvITaEWO34SpUfN1lpHz-37" value="" style="edgeStyle=none;rounded=0;orthogonalLoop=1;jettySize=auto;html=1;fontSize=12;" edge="1" parent="1" source="UvITaEWO34SpUfN1lpHz-38" target="UvITaEWO34SpUfN1lpHz-40">
          <mxGeometry relative="1" as="geometry" />
        </mxCell>
        <mxCell id="UvITaEWO34SpUfN1lpHz-38" value="提取奖励" style="whiteSpace=wrap;html=1;fontSize=11;rounded=1;arcSize=14;strokeWidth=2;labelBackgroundColor=none;labelBorderColor=none;" vertex="1" parent="1">
          <mxGeometry x="427.5" y="1747.5" width="120" height="35" as="geometry" />
        </mxCell>
        <mxCell id="UvITaEWO34SpUfN1lpHz-39" value="&lt;div style=&quot;color: rgb(0, 0, 0); background-color: rgb(255, 255, 255); font-family: Consolas, &amp;quot;Courier New&amp;quot;, monospace; font-weight: normal; line-height: 22px;&quot;&gt;&lt;div style=&quot;&quot;&gt;&lt;span style=&quot;color: rgb(0, 0, 0);&quot;&gt;&lt;font style=&quot;font-size: 13px;&quot;&gt;rewardToken&lt;/font&gt;&lt;/span&gt;&lt;/div&gt;&lt;/div&gt;" style="text;whiteSpace=wrap;html=1;fontSize=11;align=center;" vertex="1" parent="1">
          <mxGeometry x="1030" y="1169" width="150" height="40" as="geometry" />
        </mxCell>
        <mxCell id="UvITaEWO34SpUfN1lpHz-40" value="&lt;font style=&quot;font-size: 12px;&quot;&gt;from：feeSharingSystem&lt;br style=&quot;&quot;&gt;to：msg.sender&lt;br style=&quot;&quot;&gt;&lt;font style=&quot;font-size: 12px;&quot;&gt;value：&lt;span style=&quot;background-color: rgb(255, 255, 255); font-family: Consolas, &amp;quot;Courier New&amp;quot;, monospace;&quot;&gt;pendingRewards&lt;/span&gt;&lt;/font&gt;&lt;/font&gt;" style="whiteSpace=wrap;html=1;fontSize=11;rounded=1;arcSize=14;strokeWidth=2;labelBackgroundColor=none;labelBorderColor=none;align=left;" vertex="1" parent="1">
          <mxGeometry x="1036.25" y="1740" width="142.5" height="60" as="geometry" />
        </mxCell>
        <mxCell id="UvITaEWO34SpUfN1lpHz-41" value="" style="edgeStyle=none;rounded=0;orthogonalLoop=1;jettySize=auto;html=1;fontSize=12;" edge="1" parent="1" source="UvITaEWO34SpUfN1lpHz-42" target="UvITaEWO34SpUfN1lpHz-44">
          <mxGeometry relative="1" as="geometry" />
        </mxCell>
        <mxCell id="UvITaEWO34SpUfN1lpHz-60" style="edgeStyle=orthogonalEdgeStyle;curved=1;rounded=0;orthogonalLoop=1;jettySize=auto;html=1;exitX=0.5;exitY=1;exitDx=0;exitDy=0;entryX=0.5;entryY=0;entryDx=0;entryDy=0;fontColor=#CC0000;" edge="1" parent="1" source="UvITaEWO34SpUfN1lpHz-42" target="UvITaEWO34SpUfN1lpHz-36">
          <mxGeometry relative="1" as="geometry" />
        </mxCell>
        <mxCell id="UvITaEWO34SpUfN1lpHz-42" value="提取质押代币" style="whiteSpace=wrap;html=1;fontSize=11;rounded=1;arcSize=14;strokeWidth=2;labelBackgroundColor=none;labelBorderColor=none;" vertex="1" parent="1">
          <mxGeometry x="257.5" y="1656.5" width="120" height="35" as="geometry" />
        </mxCell>
        <mxCell id="UvITaEWO34SpUfN1lpHz-53" style="edgeStyle=none;rounded=0;orthogonalLoop=1;jettySize=auto;html=1;exitX=1;exitY=0.5;exitDx=0;exitDy=0;fontColor=#CC0000;dashed=1;" edge="1" parent="1" source="UvITaEWO34SpUfN1lpHz-44" target="UvITaEWO34SpUfN1lpHz-49">
          <mxGeometry relative="1" as="geometry" />
        </mxCell>
        <mxCell id="UvITaEWO34SpUfN1lpHz-44" value="withdraw" style="whiteSpace=wrap;html=1;fontSize=11;rounded=1;arcSize=14;strokeWidth=2;labelBackgroundColor=none;labelBorderColor=none;fillColor=#e1d5e7;strokeColor=#9673a6;" vertex="1" parent="1">
          <mxGeometry x="662.5" y="1656.5" width="120" height="37.5" as="geometry" />
        </mxCell>
        <mxCell id="UvITaEWO34SpUfN1lpHz-57" style="edgeStyle=orthogonalEdgeStyle;curved=1;rounded=0;orthogonalLoop=1;jettySize=auto;html=1;exitX=1;exitY=0.5;exitDx=0;exitDy=0;entryX=1;entryY=0.5;entryDx=0;entryDy=0;fontColor=#CC0000;" edge="1" parent="1" source="UvITaEWO34SpUfN1lpHz-46" target="UvITaEWO34SpUfN1lpHz-48">
          <mxGeometry relative="1" as="geometry" />
        </mxCell>
        <mxCell id="UvITaEWO34SpUfN1lpHz-46" value="&lt;span style=&quot;font-size: 11px; text-align: left;&quot;&gt;feeSharingSystem&lt;/span&gt;" style="rounded=0;whiteSpace=wrap;html=1;labelBackgroundColor=none;labelBorderColor=none;fontSize=12;strokeColor=#d79b00;fillColor=#ffe6cc;" vertex="1" parent="1">
          <mxGeometry x="860" y="1539" width="120" height="30" as="geometry" />
        </mxCell>
        <mxCell id="UvITaEWO34SpUfN1lpHz-48" value="&lt;span style=&quot;font-size: 11px; text-align: left; background-color: rgb(255, 255, 255);&quot;&gt;msg.sender&lt;/span&gt;" style="rounded=0;whiteSpace=wrap;html=1;labelBackgroundColor=none;labelBorderColor=none;fontSize=12;strokeColor=default;fillColor=default;" vertex="1" parent="1">
          <mxGeometry x="860" y="1499" width="120" height="30" as="geometry" />
        </mxCell>
        <mxCell id="UvITaEWO34SpUfN1lpHz-55" style="edgeStyle=orthogonalEdgeStyle;rounded=0;orthogonalLoop=1;jettySize=auto;html=1;exitX=0;exitY=0.5;exitDx=0;exitDy=0;entryX=0;entryY=0.5;entryDx=0;entryDy=0;fontColor=#CC0000;curved=1;" edge="1" parent="1" source="UvITaEWO34SpUfN1lpHz-49" target="UvITaEWO34SpUfN1lpHz-46">
          <mxGeometry relative="1" as="geometry" />
        </mxCell>
        <mxCell id="UvITaEWO34SpUfN1lpHz-49" value="&lt;span style=&quot;font-size: 11px; text-align: left;&quot;&gt;tokenDistributor&lt;/span&gt;" style="rounded=0;whiteSpace=wrap;html=1;labelBackgroundColor=none;labelBorderColor=none;fontSize=12;strokeColor=#A50040;fillColor=#d80073;fontColor=#ffffff;" vertex="1" parent="1">
          <mxGeometry x="860" y="1661.5" width="120" height="30" as="geometry" />
        </mxCell>
        <mxCell id="UvITaEWO34SpUfN1lpHz-50" value="自动复投后，合约质押总量在增加" style="text;html=1;strokeColor=none;fillColor=none;align=center;verticalAlign=middle;whiteSpace=wrap;rounded=0;labelBackgroundColor=none;fontColor=#CC0000;" vertex="1" parent="1">
          <mxGeometry x="427.5" y="1379" width="130" height="30" as="geometry" />
        </mxCell>
        <mxCell id="UvITaEWO34SpUfN1lpHz-56" value="①" style="text;html=1;strokeColor=none;fillColor=none;align=center;verticalAlign=middle;whiteSpace=wrap;rounded=0;labelBackgroundColor=none;fontColor=#CC0000;" vertex="1" parent="1">
          <mxGeometry x="847.5" y="1600" width="33" height="30" as="geometry" />
        </mxCell>
        <mxCell id="UvITaEWO34SpUfN1lpHz-58" value="②" style="text;html=1;strokeColor=none;fillColor=none;align=center;verticalAlign=middle;whiteSpace=wrap;rounded=0;labelBackgroundColor=none;fontColor=#CC0000;" vertex="1" parent="1">
          <mxGeometry x="973" y="1519" width="33" height="30" as="geometry" />
        </mxCell>
      </root>
    </mxGraphModel>
  </diagram>
  <diagram id="NxNYc8vhS0G0jz2mUbGY" name="平台费分配">
    <mxGraphModel dx="1865" dy="581" grid="1" gridSize="10" guides="1" tooltips="1" connect="1" arrows="1" fold="1" page="1" pageScale="1" pageWidth="827" pageHeight="1169" math="0" shadow="0">
      <root>
        <mxCell id="0" />
        <mxCell id="1" parent="0" />
        <mxCell id="TIDCWie9hSBHy7eXzn2J-1" value="" style="rounded=0;whiteSpace=wrap;html=1;labelBackgroundColor=default;labelBorderColor=none;fontSize=11;" parent="1" vertex="1">
          <mxGeometry x="115" y="90" width="270" height="430" as="geometry" />
        </mxCell>
        <mxCell id="BiSRuHw56V96t_rFbiks-5" value="" style="ellipse;whiteSpace=wrap;html=1;labelBackgroundColor=none;fontSize=12;fontColor=#CC0000;" vertex="1" parent="1">
          <mxGeometry x="160" y="270" width="180" height="110" as="geometry" />
        </mxCell>
        <mxCell id="XlBCHxu79quTkZXdKymI-2" value="" style="rounded=0;whiteSpace=wrap;html=1;labelBackgroundColor=default;labelBorderColor=none;fontSize=11;" parent="1" vertex="1">
          <mxGeometry x="-230" y="90" width="270" height="430" as="geometry" />
        </mxCell>
        <mxCell id="BQXlVKfOIZvyg5-RdjuV-1" value="&lt;div style=&quot;color: rgb(0, 0, 0); background-color: rgb(255, 255, 255); font-family: Consolas, &amp;quot;Courier New&amp;quot;, monospace; font-weight: normal; font-size: 16px; line-height: 22px;&quot;&gt;&lt;div style=&quot;font-size: 16px;&quot;&gt;&lt;span style=&quot;color: rgb(0, 0, 0); font-size: 16px;&quot;&gt;rewardToken&lt;/span&gt;&lt;/div&gt;&lt;/div&gt;" style="text;whiteSpace=wrap;html=1;fontSize=16;align=center;" parent="1" vertex="1">
          <mxGeometry x="190" y="50" width="120" height="40" as="geometry" />
        </mxCell>
        <mxCell id="XlBCHxu79quTkZXdKymI-10" style="edgeStyle=none;rounded=0;orthogonalLoop=1;jettySize=auto;html=1;exitX=0;exitY=0.5;exitDx=0;exitDy=0;entryX=1;entryY=0.5;entryDx=0;entryDy=0;fontSize=12;" parent="1" source="TIDCWie9hSBHy7eXzn2J-2" target="XlBCHxu79quTkZXdKymI-8" edge="1">
          <mxGeometry relative="1" as="geometry" />
        </mxCell>
        <mxCell id="BiSRuHw56V96t_rFbiks-15" style="rounded=0;orthogonalLoop=1;jettySize=auto;html=1;exitX=0.5;exitY=1;exitDx=0;exitDy=0;entryX=0.5;entryY=0;entryDx=0;entryDy=0;fontSize=12;fontColor=#FF0000;" edge="1" parent="1" source="TIDCWie9hSBHy7eXzn2J-2" target="BiSRuHw56V96t_rFbiks-5">
          <mxGeometry relative="1" as="geometry" />
        </mxCell>
        <mxCell id="BiSRuHw56V96t_rFbiks-18" style="edgeStyle=orthogonalEdgeStyle;rounded=0;orthogonalLoop=1;jettySize=auto;html=1;exitX=0.75;exitY=1;exitDx=0;exitDy=0;entryX=1;entryY=0.5;entryDx=0;entryDy=0;fontSize=12;fontColor=#FF0000;curved=1;" edge="1" parent="1" source="TIDCWie9hSBHy7eXzn2J-2" target="BiSRuHw56V96t_rFbiks-9">
          <mxGeometry relative="1" as="geometry">
            <Array as="points">
              <mxPoint x="296" y="260" />
              <mxPoint x="370" y="260" />
              <mxPoint x="370" y="455" />
            </Array>
          </mxGeometry>
        </mxCell>
        <mxCell id="TIDCWie9hSBHy7eXzn2J-2" value="&lt;div style=&quot;font-family: Consolas, &amp;quot;Courier New&amp;quot;, monospace; font-size: 13px; line-height: 22px;&quot;&gt;feeSharingSetter&lt;/div&gt;" style="rounded=0;whiteSpace=wrap;html=1;labelBackgroundColor=none;labelBorderColor=none;fontSize=13;fillColor=#ffe6cc;strokeColor=#d79b00;" parent="1" vertex="1">
          <mxGeometry x="157.5" y="200" width="185" height="30" as="geometry" />
        </mxCell>
        <mxCell id="XlBCHxu79quTkZXdKymI-1" value="&lt;div style=&quot;color: rgb(0, 0, 0); background-color: rgb(255, 255, 255); font-family: Consolas, &amp;quot;Courier New&amp;quot;, monospace; font-weight: normal; font-size: 16px; line-height: 22px;&quot;&gt;&lt;div style=&quot;font-size: 16px;&quot;&gt;&lt;span style=&quot;color: rgb(0, 0, 0); font-size: 16px;&quot;&gt;FeeShareSetter&lt;/span&gt;&lt;/div&gt;&lt;/div&gt;" style="text;whiteSpace=wrap;html=1;fontSize=16;align=center;" parent="1" vertex="1">
          <mxGeometry x="-165" y="50" width="140" height="40" as="geometry" />
        </mxCell>
        <mxCell id="XlBCHxu79quTkZXdKymI-9" value="" style="edgeStyle=none;rounded=0;orthogonalLoop=1;jettySize=auto;html=1;fontSize=12;" parent="1" source="XlBCHxu79quTkZXdKymI-3" target="XlBCHxu79quTkZXdKymI-8" edge="1">
          <mxGeometry relative="1" as="geometry" />
        </mxCell>
        <mxCell id="XlBCHxu79quTkZXdKymI-3" value="&lt;div style=&quot;background-color: rgb(255, 255, 255); font-family: Consolas, &amp;quot;Courier New&amp;quot;, monospace; line-height: 22px; font-size: 12px;&quot;&gt;updateRewards&lt;/div&gt;" style="rounded=1;whiteSpace=wrap;html=1;labelBackgroundColor=none;labelBorderColor=none;fontSize=12;fillColor=none;" parent="1" vertex="1">
          <mxGeometry x="-155" y="120" width="120" height="40" as="geometry" />
        </mxCell>
        <mxCell id="XlBCHxu79quTkZXdKymI-7" style="edgeStyle=none;rounded=0;orthogonalLoop=1;jettySize=auto;html=1;exitX=1;exitY=0.3333333333333333;exitDx=0;exitDy=0;exitPerimeter=0;entryX=0;entryY=0.5;entryDx=0;entryDy=0;fontSize=12;" parent="1" source="XlBCHxu79quTkZXdKymI-4" target="XlBCHxu79quTkZXdKymI-3" edge="1">
          <mxGeometry relative="1" as="geometry" />
        </mxCell>
        <mxCell id="XlBCHxu79quTkZXdKymI-4" value="Scheduler" style="shape=umlActor;verticalLabelPosition=bottom;verticalAlign=top;html=1;labelBackgroundColor=none;labelBorderColor=none;fontSize=12;fillColor=none;" parent="1" vertex="1">
          <mxGeometry x="-428" y="120" width="30" height="60" as="geometry" />
        </mxCell>
        <mxCell id="BiSRuHw56V96t_rFbiks-24" value="" style="edgeStyle=orthogonalEdgeStyle;curved=1;rounded=0;orthogonalLoop=1;jettySize=auto;html=1;fontSize=12;fontColor=#FF0000;" edge="1" parent="1" source="XlBCHxu79quTkZXdKymI-8" target="BiSRuHw56V96t_rFbiks-23">
          <mxGeometry relative="1" as="geometry" />
        </mxCell>
        <mxCell id="XlBCHxu79quTkZXdKymI-8" value="获取当前的奖励" style="whiteSpace=wrap;html=1;fillColor=none;rounded=1;labelBackgroundColor=none;labelBorderColor=none;" parent="1" vertex="1">
          <mxGeometry x="-155" y="195" width="120" height="40" as="geometry" />
        </mxCell>
        <mxCell id="XlBCHxu79quTkZXdKymI-11" value="被动质押者奖励" style="whiteSpace=wrap;html=1;fillColor=none;rounded=1;labelBackgroundColor=none;labelBorderColor=none;" parent="1" vertex="1">
          <mxGeometry x="-190" y="380" width="65" height="50" as="geometry" />
        </mxCell>
        <mxCell id="Mw0nJKVBD0iDxnNE9Uhl-1" value="主动质押者奖励" style="whiteSpace=wrap;html=1;fillColor=none;rounded=1;labelBackgroundColor=none;labelBorderColor=none;" vertex="1" parent="1">
          <mxGeometry x="-50" y="380" width="65" height="50" as="geometry" />
        </mxCell>
        <mxCell id="BiSRuHw56V96t_rFbiks-2" value="&lt;div style=&quot;color: rgb(0, 0, 0); background-color: rgb(255, 255, 255); font-family: Consolas, &amp;quot;Courier New&amp;quot;, monospace; font-size: 12px; line-height: 22px;&quot;&gt;team&lt;/div&gt;" style="ellipse;whiteSpace=wrap;html=1;labelBackgroundColor=none;fontColor=#CC0000;fontSize=12;" vertex="1" parent="1">
          <mxGeometry x="172.5" y="295" width="70" height="35" as="geometry" />
        </mxCell>
        <mxCell id="BiSRuHw56V96t_rFbiks-3" value="&lt;div style=&quot;color: rgb(0, 0, 0); background-color: rgb(255, 255, 255); font-family: Consolas, &amp;quot;Courier New&amp;quot;, monospace; line-height: 22px;&quot;&gt;&lt;font style=&quot;font-size: 12px;&quot;&gt;treasury&lt;/font&gt;&lt;/div&gt;" style="ellipse;whiteSpace=wrap;html=1;labelBackgroundColor=none;fontColor=#CC0000;" vertex="1" parent="1">
          <mxGeometry x="257.5" y="295" width="65" height="35" as="geometry" />
        </mxCell>
        <mxCell id="BiSRuHw56V96t_rFbiks-4" value="&lt;div style=&quot;color: rgb(0, 0, 0); background-color: rgb(255, 255, 255); font-family: Consolas, &amp;quot;Courier New&amp;quot;, monospace; line-height: 22px;&quot;&gt;&lt;font style=&quot;font-size: 12px;&quot;&gt;...&lt;/font&gt;&lt;/div&gt;" style="ellipse;whiteSpace=wrap;html=1;labelBackgroundColor=none;fontColor=#CC0000;" vertex="1" parent="1">
          <mxGeometry x="217.5" y="330" width="65" height="35" as="geometry" />
        </mxCell>
        <mxCell id="BiSRuHw56V96t_rFbiks-6" style="edgeStyle=none;rounded=0;orthogonalLoop=1;jettySize=auto;html=1;exitX=0;exitY=0;exitDx=0;exitDy=0;fontSize=12;fontColor=#CC0000;" edge="1" parent="1" source="BiSRuHw56V96t_rFbiks-3" target="BiSRuHw56V96t_rFbiks-3">
          <mxGeometry relative="1" as="geometry" />
        </mxCell>
        <mxCell id="BiSRuHw56V96t_rFbiks-9" value="&lt;div style=&quot;background-color: rgb(255, 255, 255); font-family: Consolas, &amp;quot;Courier New&amp;quot;, monospace; font-size: 12px; line-height: 22px;&quot;&gt;&lt;font color=&quot;#ff0000&quot;&gt;feeSharingSystem&lt;/font&gt;&lt;/div&gt;" style="ellipse;whiteSpace=wrap;html=1;labelBackgroundColor=none;fontSize=12;fontColor=#CC0000;" vertex="1" parent="1">
          <mxGeometry x="187.5" y="415" width="120" height="80" as="geometry" />
        </mxCell>
        <mxCell id="BiSRuHw56V96t_rFbiks-20" value="被动质押" style="text;html=1;strokeColor=none;fillColor=none;align=center;verticalAlign=middle;whiteSpace=wrap;rounded=0;labelBackgroundColor=none;fontSize=12;fontColor=#FF0000;" vertex="1" parent="1">
          <mxGeometry x="217.5" y="270" width="60" height="30" as="geometry" />
        </mxCell>
        <mxCell id="BiSRuHw56V96t_rFbiks-21" value="主动质押" style="text;html=1;strokeColor=none;fillColor=none;align=center;verticalAlign=middle;whiteSpace=wrap;rounded=0;labelBackgroundColor=none;fontSize=12;fontColor=#FF0000;" vertex="1" parent="1">
          <mxGeometry x="217.5" y="420" width="60" height="30" as="geometry" />
        </mxCell>
        <mxCell id="BiSRuHw56V96t_rFbiks-25" style="rounded=0;orthogonalLoop=1;jettySize=auto;html=1;exitX=0.5;exitY=1;exitDx=0;exitDy=0;entryX=0.5;entryY=0;entryDx=0;entryDy=0;fontSize=12;fontColor=#FF0000;" edge="1" parent="1" source="BiSRuHw56V96t_rFbiks-23" target="XlBCHxu79quTkZXdKymI-11">
          <mxGeometry relative="1" as="geometry" />
        </mxCell>
        <mxCell id="BiSRuHw56V96t_rFbiks-26" style="edgeStyle=none;rounded=0;orthogonalLoop=1;jettySize=auto;html=1;exitX=0.5;exitY=1;exitDx=0;exitDy=0;entryX=0.5;entryY=0;entryDx=0;entryDy=0;fontSize=12;fontColor=#FF0000;" edge="1" parent="1" source="BiSRuHw56V96t_rFbiks-23" target="Mw0nJKVBD0iDxnNE9Uhl-1">
          <mxGeometry relative="1" as="geometry" />
        </mxCell>
        <mxCell id="BiSRuHw56V96t_rFbiks-23" value="按比例分配奖励" style="whiteSpace=wrap;html=1;fillColor=none;rounded=1;labelBackgroundColor=none;labelBorderColor=none;" vertex="1" parent="1">
          <mxGeometry x="-155" y="270" width="120" height="40" as="geometry" />
        </mxCell>
      </root>
    </mxGraphModel>
  </diagram>
  <diagram id="Q9EriPsgQCzmXqWUWl8m" name="交易奖励">
    <mxGraphModel dx="1038" dy="581" grid="1" gridSize="10" guides="1" tooltips="1" connect="1" arrows="1" fold="1" page="1" pageScale="1" pageWidth="827" pageHeight="1169" math="0" shadow="0">
      <root>
        <mxCell id="0" />
        <mxCell id="1" parent="0" />
        <mxCell id="cbN_03xAPFT_8N0EYQxe-17" value="" style="ellipse;whiteSpace=wrap;html=1;labelBackgroundColor=none;fontSize=12;fontColor=#FF0000;" vertex="1" parent="1">
          <mxGeometry x="110" y="290" width="140" height="110" as="geometry" />
        </mxCell>
        <mxCell id="cbN_03xAPFT_8N0EYQxe-1" value="" style="rounded=0;whiteSpace=wrap;html=1;labelBackgroundColor=none;fontSize=12;fontColor=#FF0000;" vertex="1" parent="1">
          <mxGeometry x="140" y="190" width="510" height="40" as="geometry" />
        </mxCell>
        <mxCell id="cbN_03xAPFT_8N0EYQxe-19" style="edgeStyle=none;rounded=0;orthogonalLoop=1;jettySize=auto;html=1;exitX=0.5;exitY=1;exitDx=0;exitDy=0;fontSize=16;fontColor=#FF0000;" edge="1" parent="1" source="cbN_03xAPFT_8N0EYQxe-2" target="cbN_03xAPFT_8N0EYQxe-17">
          <mxGeometry relative="1" as="geometry" />
        </mxCell>
        <mxCell id="cbN_03xAPFT_8N0EYQxe-2" value="" style="rounded=0;whiteSpace=wrap;html=1;labelBackgroundColor=none;fontSize=12;fontColor=#FF0000;" vertex="1" parent="1">
          <mxGeometry x="140" y="190" width="80" height="40" as="geometry" />
        </mxCell>
        <mxCell id="cbN_03xAPFT_8N0EYQxe-3" value="" style="rounded=0;whiteSpace=wrap;html=1;labelBackgroundColor=none;fontSize=12;fontColor=#FF0000;" vertex="1" parent="1">
          <mxGeometry x="220" y="190" width="80" height="40" as="geometry" />
        </mxCell>
        <mxCell id="cbN_03xAPFT_8N0EYQxe-4" value="" style="rounded=0;whiteSpace=wrap;html=1;labelBackgroundColor=none;fontSize=12;fontColor=#FF0000;" vertex="1" parent="1">
          <mxGeometry x="300" y="190" width="80" height="40" as="geometry" />
        </mxCell>
        <mxCell id="cbN_03xAPFT_8N0EYQxe-5" value="&lt;font color=&quot;#000000&quot;&gt;一个奖励周期（6500区块）&lt;/font&gt;" style="text;html=1;strokeColor=none;fillColor=none;align=center;verticalAlign=middle;whiteSpace=wrap;rounded=0;labelBackgroundColor=none;fontSize=12;fontColor=#FF0000;" vertex="1" parent="1">
          <mxGeometry x="140" y="150" width="80" height="30" as="geometry" />
        </mxCell>
        <mxCell id="cbN_03xAPFT_8N0EYQxe-8" style="edgeStyle=none;rounded=0;orthogonalLoop=1;jettySize=auto;html=1;entryX=0.5;entryY=0;entryDx=0;entryDy=0;fontSize=12;fontColor=#FF0000;" edge="1" parent="1" target="cbN_03xAPFT_8N0EYQxe-2">
          <mxGeometry relative="1" as="geometry">
            <mxPoint x="290" y="60" as="sourcePoint" />
          </mxGeometry>
        </mxCell>
        <mxCell id="cbN_03xAPFT_8N0EYQxe-9" style="edgeStyle=none;rounded=0;orthogonalLoop=1;jettySize=auto;html=1;entryX=0.5;entryY=0;entryDx=0;entryDy=0;fontSize=12;fontColor=#FF0000;" edge="1" parent="1" target="cbN_03xAPFT_8N0EYQxe-3">
          <mxGeometry relative="1" as="geometry">
            <mxPoint x="290" y="60" as="sourcePoint" />
          </mxGeometry>
        </mxCell>
        <mxCell id="cbN_03xAPFT_8N0EYQxe-10" style="edgeStyle=none;rounded=0;orthogonalLoop=1;jettySize=auto;html=1;entryX=0.5;entryY=0;entryDx=0;entryDy=0;fontSize=12;fontColor=#FF0000;" edge="1" parent="1" target="cbN_03xAPFT_8N0EYQxe-4">
          <mxGeometry relative="1" as="geometry">
            <mxPoint x="290" y="60" as="sourcePoint" />
          </mxGeometry>
        </mxCell>
        <mxCell id="cbN_03xAPFT_8N0EYQxe-6" value="&lt;font color=&quot;#000000&quot;&gt;manager&lt;/font&gt;" style="shape=umlActor;verticalLabelPosition=bottom;verticalAlign=top;html=1;labelBackgroundColor=none;fontSize=12;fontColor=#FF0000;" vertex="1" parent="1">
          <mxGeometry x="280" y="20" width="20" height="40" as="geometry" />
        </mxCell>
        <mxCell id="cbN_03xAPFT_8N0EYQxe-11" value="定时更新每个奖励周期的奖励" style="text;html=1;strokeColor=none;fillColor=none;align=center;verticalAlign=middle;whiteSpace=wrap;rounded=0;labelBackgroundColor=none;fontSize=12;fontColor=#FF0000;" vertex="1" parent="1">
          <mxGeometry x="315" y="100" width="160" height="30" as="geometry" />
        </mxCell>
        <mxCell id="cbN_03xAPFT_8N0EYQxe-12" value="&lt;font color=&quot;#000000&quot;&gt;user&lt;/font&gt;" style="shape=umlActor;verticalLabelPosition=bottom;verticalAlign=top;html=1;labelBackgroundColor=none;fontSize=12;fontColor=#FF0000;" vertex="1" parent="1">
          <mxGeometry x="150" y="300" width="20" height="30" as="geometry" />
        </mxCell>
        <mxCell id="cbN_03xAPFT_8N0EYQxe-14" value="&lt;font color=&quot;#000000&quot;&gt;user&lt;/font&gt;" style="shape=umlActor;verticalLabelPosition=bottom;verticalAlign=top;html=1;labelBackgroundColor=none;fontSize=12;fontColor=#FF0000;" vertex="1" parent="1">
          <mxGeometry x="190" y="300" width="20" height="30" as="geometry" />
        </mxCell>
        <mxCell id="cbN_03xAPFT_8N0EYQxe-15" value="&lt;font color=&quot;#000000&quot;&gt;user&lt;/font&gt;" style="shape=umlActor;verticalLabelPosition=bottom;verticalAlign=top;html=1;labelBackgroundColor=none;fontSize=12;fontColor=#FF0000;" vertex="1" parent="1">
          <mxGeometry x="170" y="340" width="20" height="30" as="geometry" />
        </mxCell>
        <mxCell id="cbN_03xAPFT_8N0EYQxe-18" value="LOOKS奖励" style="text;html=1;strokeColor=none;fillColor=none;align=center;verticalAlign=middle;whiteSpace=wrap;rounded=0;labelBackgroundColor=none;fontSize=16;fontColor=#FF0000;fontStyle=1" vertex="1" parent="1">
          <mxGeometry x="660" y="195" width="110" height="30" as="geometry" />
        </mxCell>
        <mxCell id="cbN_03xAPFT_8N0EYQxe-20" value="&lt;font color=&quot;#000000&quot;&gt;cliam&lt;/font&gt;" style="text;html=1;strokeColor=none;fillColor=none;align=center;verticalAlign=middle;whiteSpace=wrap;rounded=0;labelBackgroundColor=none;fontSize=12;fontColor=#FF0000;" vertex="1" parent="1">
          <mxGeometry x="180" y="250" width="60" height="30" as="geometry" />
        </mxCell>
        <mxCell id="cbN_03xAPFT_8N0EYQxe-22" value="" style="rounded=1;whiteSpace=wrap;html=1;labelBackgroundColor=none;fontSize=12;fontColor=#000000;" vertex="1" parent="1">
          <mxGeometry x="300" y="275" width="155" height="80" as="geometry" />
        </mxCell>
        <mxCell id="cbN_03xAPFT_8N0EYQxe-23" value="&lt;div style=&quot;background-color: rgb(255, 255, 255); font-family: Consolas, &amp;quot;Courier New&amp;quot;, monospace; font-size: 12px; line-height: 22px;&quot;&gt;currentRewardRound&lt;/div&gt;" style="text;html=1;strokeColor=none;fillColor=none;align=left;verticalAlign=middle;whiteSpace=wrap;rounded=0;labelBackgroundColor=none;fontSize=12;fontColor=#000000;" vertex="1" parent="1">
          <mxGeometry x="315" y="285" width="130" height="30" as="geometry" />
        </mxCell>
        <mxCell id="cbN_03xAPFT_8N0EYQxe-24" style="edgeStyle=none;rounded=0;orthogonalLoop=1;jettySize=auto;html=1;exitX=1;exitY=0.75;exitDx=0;exitDy=0;fontSize=12;fontColor=#000000;" edge="1" parent="1" source="cbN_03xAPFT_8N0EYQxe-23" target="cbN_03xAPFT_8N0EYQxe-23">
          <mxGeometry relative="1" as="geometry" />
        </mxCell>
        <mxCell id="cbN_03xAPFT_8N0EYQxe-25" value="&lt;div style=&quot;background-color: rgb(255, 255, 255); font-family: Consolas, &amp;quot;Courier New&amp;quot;, monospace; font-size: 12px; line-height: 22px;&quot;&gt;&lt;div style=&quot;font-size: 12px; line-height: 22px;&quot;&gt;merkleRoot&lt;/div&gt;&lt;/div&gt;" style="text;html=1;strokeColor=none;fillColor=none;align=left;verticalAlign=middle;whiteSpace=wrap;rounded=0;labelBackgroundColor=none;fontSize=12;fontColor=#000000;" vertex="1" parent="1">
          <mxGeometry x="315" y="315" width="120" height="30" as="geometry" />
        </mxCell>
        <mxCell id="cbN_03xAPFT_8N0EYQxe-26" value="" style="endArrow=classic;html=1;rounded=0;fontSize=12;fontColor=#000000;entryX=0;entryY=0;entryDx=0;entryDy=0;exitX=0.5;exitY=0.5;exitDx=0;exitDy=0;exitPerimeter=0;startArrow=oval;startFill=1;" edge="1" parent="1" source="cbN_03xAPFT_8N0EYQxe-2" target="cbN_03xAPFT_8N0EYQxe-22">
          <mxGeometry width="50" height="50" relative="1" as="geometry">
            <mxPoint x="390" y="270" as="sourcePoint" />
            <mxPoint x="440" y="220" as="targetPoint" />
          </mxGeometry>
        </mxCell>
      </root>
    </mxGraphModel>
  </diagram>
</mxfile>
